<svg width="390" height="129" viewBox="0 0 390 129" fill="none" xmlns="http://www.w3.org/2000/svg">
<path d="M109.924 116.52H13.1212C6.49978 116.52 1.08496 111.133 1.08496 104.546C1.08496 97.9581 6.49978 92.5711 13.1212 92.5711C13.1212 92.5711 31.7187 92.5711 53.755 92.5711C73.3027 92.5711 97.0133 84.663 112.685 64.9453C152.232 82.5772 121.961 97.9581 121.961 104.546C121.961 111.133 116.546 116.52 109.924 116.52Z" fill="white"/>
<path d="M46.7974 104.808C47.9056 105.046 50.7775 97.8505 52.4206 93.0747C48.2733 92.8469 44.0523 92.7646 39.9075 93.0367C42.1793 97.7071 45.6893 104.57 46.7974 104.808Z" fill="#3AC882"/>
<path d="M73.3191 100.957C74.3531 100.916 75.2644 93.9014 75.6365 89.3051C71.9166 90.0425 68.1643 90.9254 64.5597 92.1044C67.6266 95.7212 72.2851 100.997 73.3191 100.957Z" fill="#3AC882"/>
<path d="M95.4812 93.2887C96.4813 93.0229 95.8358 85.9787 95.1933 81.4124C91.7248 82.9458 88.2566 84.6281 84.9973 86.5672C88.7811 89.4254 94.481 93.5545 95.4812 93.2887Z" fill="#3AC882"/>
<path d="M109.925 117.271H13.1215C6.06262 117.271 0.331055 111.568 0.331055 104.546C0.331055 97.5229 6.06262 91.8207 13.1215 91.8207H53.7553C76.6815 91.8207 98.4916 81.6018 112.097 64.4951L112.459 64.0449L112.986 64.285C125.324 69.7922 132.021 75.5244 133.484 81.8118C135.053 88.5645 130.061 94.4918 126.425 98.8134C124.51 101.094 122.7 103.24 122.7 104.561C122.715 111.568 116.983 117.271 109.925 117.271ZM13.1215 93.3213C6.90727 93.3213 1.83936 98.3633 1.83936 104.546C1.83936 110.728 6.90727 115.77 13.1215 115.77H109.925C116.139 115.77 121.207 110.728 121.207 104.546C121.207 102.685 123.002 100.539 125.279 97.8381C128.899 93.5314 133.409 88.1593 132.021 82.127C130.709 76.4998 124.284 71.0226 112.911 65.8756C98.9894 83.0723 76.9229 93.3213 53.7553 93.3213H13.1215Z" fill="black"/>
<path d="M244.602 48.4088C244.602 48.4088 208.99 35.4288 199.458 31.9474C189.925 28.4511 179.895 26.2152 168.115 25.9601C156.335 25.705 138.025 27.9559 122.73 46.4131C107.436 64.8702 102.821 83.4324 81.5838 94.0716C65.3695 102.205 53.8762 105.056 55.0074 116.445C55.8521 124.984 66.0482 127.46 77.8281 127.46C89.608 127.46 310.816 127.46 310.816 127.46L244.602 48.4088Z" fill="white"/>
<path d="M312.414 128.21H77.8274C62.9555 128.21 55.0218 124.278 54.2526 116.52C53.2722 106.586 61.2059 102.88 73.2271 97.2527C75.7761 96.0522 78.4157 94.8218 81.2362 93.4112C95.2484 86.3885 101.794 76.0795 109.381 64.1348C113.137 58.2225 117.028 52.1002 122.126 45.9478C133.861 31.7973 149.351 24.8346 168.115 25.2097C179.065 25.4348 189.11 27.3555 199.714 31.242C209.246 34.7384 244.857 47.7034 244.857 47.7034L245.053 47.7785L245.189 47.9285L312.414 128.21ZM166.531 26.6953C148.703 26.6953 134.555 33.3128 123.303 46.8931C118.25 52.9855 114.404 59.0629 110.663 64.9301C103.288 76.5597 96.3042 87.5289 81.93 94.7317C79.0793 96.1573 76.4398 97.4028 73.8757 98.5882C62.0204 104.14 54.871 107.487 55.7609 116.355C56.4396 123.213 63.8605 126.694 77.8274 126.694H309.202L244.148 49.054C241.343 48.0336 208.326 35.9989 199.201 32.6526C188.763 28.8261 178.884 26.9354 168.1 26.7103C167.572 26.6953 167.044 26.6953 166.531 26.6953Z" fill="black"/>
<path d="M218.432 84.6777L164.313 104.455C158.25 107.217 156.078 112.559 156.078 117.39C156.078 122.642 160.12 126.949 165.264 127.429V127.474H266.939L218.432 84.6777Z" fill="white"/>
<path d="M268.93 128.21H164.555V128.09C159.246 127.294 155.324 122.793 155.324 117.391C155.324 111.253 158.492 106.301 163.997 103.78L218.598 83.8225L268.93 128.21ZM165.807 126.709H264.948L218.266 85.5332L164.57 105.161C157.587 108.342 156.833 114.765 156.833 117.391C156.833 122.237 160.483 126.229 165.339 126.679L165.807 126.709Z" fill="black"/>
<path d="M150.544 38.3548C165.793 47.3433 171.916 43.3518 190.966 45.8427C210.031 48.3337 223.063 58.3126 240.107 60.8186C244.918 61.5238 249.172 60.6385 252.792 59.0029L244.617 49.2491C244.617 49.2491 209.006 36.269 199.473 32.7877C189.941 29.2913 179.91 27.0554 168.131 26.8003C161.705 26.6653 153.334 27.2805 144.586 30.8519C145.355 33.718 147.135 36.344 150.544 38.3548Z" fill="#50BC81"/>
<path d="M185.355 97.478L164.405 105.131C158.704 107.727 156.652 112.754 156.652 117.301C156.652 122.238 160.453 126.289 165.295 126.739V126.784H197.422C197.06 113.129 191.509 103.735 185.355 97.478Z" fill="#50BC81"/>
<path d="M77.1492 96.8777C63.7404 103.285 54.6 106.391 55.5955 116.325C56.3949 124.428 66.0632 126.769 77.2548 126.769C79.5625 126.769 90.3921 126.769 106.079 126.769C94.0272 109.543 83.8159 101.034 77.1492 96.8777Z" fill="#50BC81"/>
<path d="M25.1583 104.486C25.1583 98.6033 28.6123 95.122 31.3423 93.2612C20.5428 93.2612 13.1974 93.2612 13.1974 93.2612C6.953 93.2762 1.83984 98.3632 1.83984 104.576C1.83984 110.788 6.953 115.875 13.1974 115.875H39.1855C31.7345 112.724 25.1583 108.717 25.1583 104.486Z" fill="#50BC81"/>
<path d="M387.544 48.6639C380.907 45.7528 362.385 52.0702 354.527 55.0114C342.717 42.6316 325.205 31.6473 301.525 27.7158C293.41 26.3652 285.371 26.3953 277.648 27.4757C273.531 20.558 260.725 -0.0600298 254.888 0.765292C249.443 1.54559 243.108 31.4822 240.469 44.1772C222.61 57.3373 212.791 84.843 220.423 101.169C232.716 127.46 239.217 127.249 294.843 127.249C350.816 127.249 379.655 132.246 370.123 92.571C377.77 79.6059 393.743 51.38 387.544 48.6639Z" fill="white"/>
<path d="M255.377 16.832C254.254 18.3295 252.101 32.7431 251.165 39.7627C256.032 36.3933 264.736 33.0551 268.48 31.8071C264.58 26.1915 256.5 15.3345 255.377 16.832Z" fill="#BFBFBF"/>
<path d="M378.193 60.2517C378.041 62.1174 370.1 74.3375 366.149 80.2143C364.737 74.4655 360.432 66.1969 358.455 62.7811C365.098 61.1606 378.344 58.3859 378.193 60.2517Z" fill="#BFBFBF"/>
<path d="M325.25 128.21C321.012 128.21 316.502 128.165 311.72 128.12C306.411 128.06 300.77 128.015 294.827 128.015H293.576C239.095 128.03 232.127 128.015 219.729 101.499C212.082 85.1431 221.825 57.1722 239.774 43.757C246.034 13.7153 250.528 0.630245 254.767 0.0300117C254.903 0.0150058 255.053 0 255.189 0C261.147 0 271.886 16.4014 278.025 26.6654C285.989 25.6 293.938 25.705 301.63 26.9805C327.995 31.3472 345.009 44.0871 354.707 54.1411C364.466 50.5246 381.268 45.1075 387.83 47.9887C388.599 48.3188 389.127 48.949 389.428 49.8344C391.012 54.7263 384.783 69.1469 370.906 92.706C373.802 104.951 373.109 113.204 368.75 118.651C362.068 126.994 347.271 128.21 325.25 128.21ZM294.842 126.499C300.785 126.499 306.426 126.559 311.751 126.604C340.846 126.889 360.062 127.084 367.588 117.706C371.676 112.589 372.249 104.666 369.398 92.7511L369.323 92.4509L369.474 92.1958C387.513 61.614 388.84 52.8205 388.011 50.2846C387.86 49.8044 387.603 49.5042 387.241 49.3392C382.792 47.3884 370.665 49.7744 354.798 55.7017L354.33 55.8817L353.983 55.5216C344.496 45.5727 327.678 32.8028 301.404 28.4511C293.681 27.1756 285.732 27.0855 277.753 28.211L277.256 28.286L276.999 27.8508C267.014 11.0893 258.628 0.960373 254.993 1.50058C251.66 1.98077 247.014 16.3864 241.207 44.3272L241.147 44.6123L240.921 44.7774C223.334 57.7425 213.696 85.008 221.116 100.854C233.108 126.514 238.809 126.469 293.606 126.499H294.842Z" fill="black"/>
<path d="M255.023 104.981C261.096 104.981 266.018 100.083 266.018 94.0415C266.018 88 261.096 83.1023 255.023 83.1023C248.95 83.1023 244.027 88 244.027 94.0415C244.027 100.083 248.95 104.981 255.023 104.981Z" fill="#F1C21B"/>
<path d="M231.206 78.3904C231.191 78.3304 231.191 78.2704 231.221 78.2253C231.282 78.1353 231.402 78.1053 231.493 78.1503L255.852 92.4059C255.942 92.4659 255.973 92.5859 255.927 92.676C255.867 92.766 255.746 92.796 255.656 92.751L231.297 78.4955C231.251 78.4654 231.221 78.4204 231.206 78.3904Z" fill="#10113B"/>
<path d="M228.733 84.8278C228.718 84.7828 228.718 84.7378 228.733 84.6927C228.778 84.5877 228.884 84.5427 228.989 84.5877L255.355 94.7316C255.46 94.7767 255.505 94.8817 255.46 94.9867C255.415 95.0918 255.309 95.1368 255.204 95.0918L228.839 84.9478C228.793 84.9178 228.748 84.8728 228.733 84.8278Z" fill="#10113B"/>
<path d="M226.561 94.4317C226.546 94.4017 226.546 94.3717 226.546 94.3417C226.561 94.2367 226.651 94.1616 226.757 94.1616L254.872 97.0127C254.977 97.0277 255.053 97.1178 255.053 97.2228C255.038 97.3279 254.947 97.4029 254.842 97.4029L226.727 94.5518C226.636 94.5518 226.576 94.5068 226.561 94.4317Z" fill="#10113B"/>
<path d="M265.777 83.1772C267.851 83.1772 269.533 81.5044 269.533 79.4408C269.533 77.3772 267.851 75.7043 265.777 75.7043C263.703 75.7043 262.021 77.3772 262.021 79.4408C262.021 81.5044 263.703 83.1772 265.777 83.1772Z" fill="black"/>
<path d="M262.007 78.8256C260.755 78.8256 259.744 77.8202 259.744 76.5747C259.744 75.3292 260.755 74.3238 262.007 74.3238L279.473 74.2788C280.725 74.2788 281.735 75.2842 281.735 76.5297C281.735 77.7752 280.725 78.7806 279.473 78.7806L262.007 78.8256C262.022 78.8256 262.022 78.8256 262.007 78.8256Z" fill="black"/>
<path d="M322.173 99.9988C324.247 99.9988 325.928 98.3259 325.928 96.2623C325.928 94.1988 324.247 92.5259 322.173 92.5259C320.098 92.5259 318.417 94.1988 318.417 96.2623C318.417 98.3259 320.098 99.9988 322.173 99.9988Z" fill="black"/>
<path d="M335.612 104.696C335.114 104.696 334.616 104.531 334.209 104.201L320.468 93.2914C319.488 92.5111 319.337 91.1005 320.106 90.1251C320.891 89.1497 322.308 88.9997 323.289 89.765L337.03 100.674C338.01 101.455 338.161 102.865 337.392 103.84C336.924 104.396 336.275 104.696 335.612 104.696Z" fill="black"/>
<path d="M284.495 68.7118C284.435 68.7118 284.389 68.7118 284.329 68.6968L264.223 66.551C263.394 66.461 262.791 65.7257 262.881 64.9004C262.972 64.075 263.696 63.4748 264.54 63.5648L284.646 65.7107C285.475 65.8007 286.079 66.536 285.988 67.3613C285.913 68.1416 285.264 68.7118 284.495 68.7118Z" fill="black"/>
<path d="M337.829 91.1754C337.528 91.1754 337.226 91.0854 336.954 90.8903L323.727 81.5266C323.048 81.0464 322.897 80.1161 323.38 79.4408C323.862 78.7656 324.797 78.6155 325.476 79.0957L338.704 88.4593C339.383 88.9395 339.534 89.8699 339.051 90.5451C338.764 90.9503 338.312 91.1754 337.829 91.1754Z" fill="black"/>
<path d="M285.37 98.1832C284.963 98.1832 284.616 97.853 284.616 97.4479C284.616 97.0277 284.933 96.6976 285.355 96.6826C288.568 96.6225 292.429 96.2774 293.093 95.8122C293.862 95.272 294.918 93.0211 295.401 91.7306C295.551 91.3405 295.974 91.1454 296.366 91.2955C296.758 91.4455 296.954 91.8657 296.803 92.2558C296.652 92.646 295.355 96.0673 293.953 97.0427C292.61 97.9881 287.045 98.1531 285.37 98.1832Z" fill="black"/>
<path d="M297.497 105.071C297.256 105.071 297.014 104.951 296.863 104.741C295.627 102.895 292.791 98.4384 293.168 96.8027C293.44 95.6173 295.219 92.0609 295.415 91.6557C295.596 91.2806 296.049 91.1305 296.426 91.3256C296.803 91.5057 296.954 91.9559 296.758 92.331C296.004 93.8466 294.812 96.3826 294.631 97.1329C294.51 97.7931 296.094 100.899 298.115 103.901C298.341 104.246 298.251 104.711 297.904 104.936C297.783 105.026 297.648 105.071 297.497 105.071Z" fill="black"/>
<path d="M302.505 85.9533C299.684 85.113 296.547 84.9329 294.134 83.2523C293.651 82.9221 293.138 82.517 292.565 82.577C291.766 82.667 291.359 83.6274 291.404 84.4227C291.464 85.5482 292.067 86.5536 292.671 87.5139C293.093 88.1892 293.515 88.8795 293.938 89.5547C294.511 90.4851 295.129 91.4755 296.11 92.0007C297.859 92.946 300.031 92.0907 301.69 90.9953C302.46 90.4851 305.024 89.0745 305.19 88.0992C305.371 86.9287 303.35 86.2084 302.505 85.9533Z" fill="#50BC81"/>
<path d="M317.603 112.649C314.043 117.541 315.551 123.588 321.494 124.878C327.844 126.244 333.033 126.169 336.788 122.763C341.268 118.696 336.834 114.119 331.238 111.778C325.597 109.422 321.162 107.757 317.603 112.649Z" fill="#F1C21B"/>
<path d="M356.411 117.06C356.457 117.03 356.487 116.97 356.487 116.91C356.487 116.805 356.396 116.715 356.291 116.715L328.025 116.205C327.92 116.205 327.829 116.295 327.829 116.4C327.829 116.505 327.92 116.595 328.025 116.595L356.291 117.105C356.336 117.09 356.366 117.075 356.411 117.06Z" fill="#10113B"/>
<path d="M355.129 123.828C355.159 123.798 355.19 123.753 355.205 123.708C355.22 123.603 355.159 123.498 355.054 123.483L327.256 118.426C327.15 118.411 327.045 118.471 327.03 118.576C327.015 118.681 327.075 118.786 327.18 118.801L354.979 123.858C355.039 123.873 355.084 123.858 355.129 123.828Z" fill="#10113B"/>
<path d="M340.106 127.054C340.137 127.039 340.152 127.009 340.167 126.979C340.212 126.889 340.167 126.769 340.076 126.724L326.441 120.647C326.351 120.602 326.23 120.647 326.185 120.737C326.139 120.827 326.185 120.947 326.275 120.992L339.91 127.069C339.971 127.114 340.061 127.099 340.106 127.054Z" fill="#10113B"/>
<path d="M301.102 28.3611C301.102 28.3611 295.024 42.6316 299.715 45.2577C303.848 47.5686 310.695 30.3869 310.695 30.3869C310.695 30.3869 307.06 29.5015 305.763 29.2614C304.466 29.0063 301.102 28.3611 301.102 28.3611Z" fill="#50BC81"/>
<path d="M314.195 31.4373C314.195 31.4373 305.839 50.8998 311.872 54.3512C317.769 57.7275 324.346 35.0687 324.346 35.0687C324.346 35.0687 318.116 32.5627 319.247 32.9679C320.379 33.373 314.195 31.4373 314.195 31.4373Z" fill="#50BC81"/>
<path d="M327.859 36.6294C327.196 38.3401 320.333 55.1166 325.024 57.7426C329.157 60.0535 336.653 41.4763 336.653 41.4763C336.653 41.4763 332.037 38.1 327.859 36.6294Z" fill="#50BC81"/>
</svg>
