<svg width="258" height="183" viewBox="0 0 258 183" fill="none" xmlns="http://www.w3.org/2000/svg">
<path d="M133.523 166.934C197.291 166.934 248.985 162.042 248.985 156.008C248.985 149.975 197.291 145.083 133.523 145.083C69.756 145.083 18.0615 149.975 18.0615 156.008C18.0615 162.042 69.756 166.934 133.523 166.934Z" fill="#515151"/>
<path d="M256.873 132.423C256.774 132.683 256.613 132.919 256.415 133.154C253.934 136.239 245.29 138.357 243.492 139.88C236.423 145.789 231.4 151.822 222.57 155.6C217.125 157.941 207.105 158.857 195.149 159.105C183.218 159.365 169.353 158.969 156.232 158.635C139.03 158.226 123.094 157.928 114.437 159.452C107.455 160.678 98.253 161.384 88.592 161.607C76.388 161.892 63.441 161.409 53.259 160.257C46.177 159.452 40.435 158.312 37.211 156.876C31.221 154.212 25.416 151.14 19.401 148.601C13.8206 146.26 8.28939 147.114 2.53489 145.479C1.45589 145.17 0.240498 144.625 0.029698 143.535C-0.00750195 143.336 -0.00749972 143.151 0.0173003 142.952C0.0173003 142.903 0.0296958 142.841 0.0420958 142.791C0.0668958 142.643 0.116494 142.469 0.178494 142.321C0.265294 142.085 0.376896 141.862 0.500996 141.639C2.9441 137.267 7.8305 134.777 12.7789 135.78C21.758 137.601 30.774 135.037 42.357 128.608C43.672 127.877 44.949 127.184 46.214 126.527C48.174 125.524 50.121 124.619 52.167 123.864C59.112 121.25 67.211 120.185 80.667 121.944C83.507 122.315 86.62 122.823 89.981 123.455C103.449 126.032 114.041 128.583 123.02 130.181C132.085 131.816 139.514 132.46 146.62 131.172C150.378 130.491 154.756 129.178 159.543 127.679C170.928 124.136 184.545 119.578 197.146 120.16C199.217 120.259 201.263 120.494 203.26 120.891C204.773 121.201 206.261 121.498 207.687 121.808C217.386 123.851 225.001 125.784 231.549 126.812C236.286 127.555 240.466 127.828 244.447 127.332C247.386 126.961 252.768 126.762 255.224 128.67C257.035 130.045 257.394 131.296 256.873 132.423Z" fill="#A6A6A6"/>
<path opacity="0.48" d="M207.687 121.808C207.241 123.034 206.372 124.174 205.231 125.066C202.218 127.394 197.865 128.336 193.723 129.153C183.404 131.185 172.986 132.981 162.519 134.554C150.799 136.326 139.018 137.812 127.174 139.001C126.343 139.088 125.487 139.187 124.644 139.261C116.558 140.042 108.41 140.698 100.274 140.252C91.63 139.794 83.197 138.072 75.111 135.719C74.044 135.409 72.829 135.074 71.526 134.715C65.152 132.969 56.818 130.603 53.717 126.676C52.911 125.648 52.403 124.719 52.167 123.876C59.112 121.263 67.211 120.197 80.667 121.956C83.507 122.328 86.62 122.836 89.98 123.468C103.449 126.044 114.04 128.596 123.019 130.194C132.085 131.829 139.514 132.473 146.62 131.185C150.378 130.504 154.756 129.191 159.543 127.692C170.928 124.149 184.545 119.591 197.145 120.173C199.217 120.272 201.263 120.507 203.26 120.904C204.785 121.201 206.261 121.498 207.687 121.808Z" fill="#7B7B7B"/>
<path d="M229.006 72.0729C216.133 110.646 204.413 114.796 204.413 114.796L209.709 92.648C209.709 92.648 220.747 69.5087 213.169 47.695C212.574 45.9608 211.855 44.2142 210.999 42.5047C199.415 19.3655 182.685 14.2249 194.269 2.6429C202.677 -5.7556 223.922 14.2496 230.085 40.5971C232.392 50.5812 232.553 61.4819 229.006 72.0729Z" fill="white"/>
<path d="M203.545 115.763L209.138 92.376C209.25 92.14 219.965 69.1993 212.574 47.8934C211.966 46.1096 211.247 44.3878 210.428 42.7775C206.15 34.218 201.152 28.1483 197.146 23.2677C190.287 14.9064 186.133 9.8648 193.81 2.2096C195.856 0.165699 198.708 -0.416501 202.057 0.537299C214.409 4.0552 226.824 24.0233 230.656 40.4611C233.223 51.4733 232.863 62.4731 229.589 72.2713C216.766 110.684 205.095 115.205 204.612 115.379L203.545 115.763ZM210.292 92.859L205.343 113.57C208.568 111.39 218.155 102.669 228.423 71.8873C231.623 62.312 231.983 51.5352 229.465 40.746C224.814 20.8151 211.371 4.4764 201.734 1.7265C198.808 0.896498 196.439 1.3425 194.703 3.089C187.832 9.9515 191.267 14.1384 198.126 22.4873C202.169 27.4174 207.216 33.5491 211.557 42.2325C212.4 43.8923 213.144 45.6637 213.764 47.5094C221.119 68.741 210.912 91.496 210.292 92.859Z" fill="black"/>
<path d="M229.018 39.3339C227.89 39.2967 226.724 39.1109 225.645 38.9003C222.718 38.3181 219.233 37.8969 217.137 40.0028C216.108 41.0433 215.649 42.5174 214.955 43.818C214.471 44.7347 213.752 45.6513 212.846 46.122C212.276 44.4621 211.594 42.7899 210.763 41.1548C199.676 19.0065 183.665 14.0888 194.752 3.0147C202.788 -5.0246 223.128 14.1136 229.018 39.3339Z" fill="#3AC882"/>
<path d="M182.437 47.7081C182.437 48.5256 182.412 49.3556 182.362 50.1607C182.3 51.2756 182.176 52.378 182.028 53.4681C181.705 55.7473 181.197 57.9646 180.515 60.1076C180.515 60.12 180.515 60.12 180.515 60.12C180.279 60.8137 180.056 61.4702 179.795 62.1391C178.927 64.3936 177.873 66.5489 176.658 68.5804C176.658 68.5928 176.658 68.5928 176.658 68.5928C176.335 69.1255 176 69.6209 175.665 70.1288C174.438 71.9497 173.086 73.6592 171.598 75.2571C171.25 75.6411 170.891 76.0127 170.519 76.3719C168.906 77.9699 167.17 79.4316 165.322 80.7446C164.938 81.017 164.553 81.277 164.169 81.525C162.929 82.33 161.651 83.086 160.312 83.767C159.915 83.978 159.506 84.176 159.084 84.362C157.05 85.315 154.929 86.096 152.722 86.703C152.3 86.814 151.879 86.938 151.444 87.025C149.993 87.384 148.505 87.644 147.005 87.83C146.583 87.88 146.149 87.929 145.727 87.966C144.487 88.065 143.234 88.127 141.969 88.127C141.337 88.127 140.704 88.115 140.084 88.09C139.65 88.065 139.191 88.041 138.757 88.003H138.745C136.475 87.842 134.293 87.458 132.147 86.926C131.688 86.827 131.217 86.69 130.758 86.567C129.22 86.121 127.732 85.588 126.281 84.981H126.269C125.797 84.77 125.314 84.572 124.855 84.337C122.598 83.296 120.464 82.045 118.468 80.6208C117.984 80.2615 117.5 79.9023 117.029 79.5307C114.214 77.3382 111.684 74.7616 109.551 71.8878V71.8754C109.538 71.863 109.538 71.863 109.551 71.8506L109.538 71.8382C109.08 71.2189 108.621 70.6119 108.187 69.9554C106.277 67.0692 104.739 63.9352 103.598 60.6031C103.399 60.0085 103.213 59.4015 103.04 58.7946C102.507 56.9489 102.11 55.0413 101.862 53.0965C101.775 52.44 101.7 51.771 101.638 51.1021C101.552 49.9873 101.502 48.8353 101.502 47.6957C101.502 45.8995 101.614 44.1158 101.849 42.3816C101.948 41.6136 102.072 40.8332 102.221 40.0776C102.643 37.8107 103.263 35.6182 104.057 33.5C104.454 32.4347 104.888 31.3942 105.384 30.3784C106.81 27.3683 108.596 24.5688 110.704 22.0295C111.882 20.5926 113.172 19.23 114.536 17.9789L114.549 17.9665C119.906 13.0364 126.566 9.5308 133.983 8.0568H133.995C135.768 7.6975 137.592 7.4622 139.427 7.3507H139.452C140.283 7.3011 141.114 7.2764 141.957 7.2764C142.54 7.2764 143.11 7.2888 143.681 7.3135C144.685 7.3507 145.678 7.425 146.657 7.5489C148.046 7.6975 149.411 7.9329 150.762 8.2426C151.469 8.3912 152.164 8.5646 152.858 8.7628C153.9 9.0601 154.929 9.3946 155.934 9.7538C156.542 9.9892 157.149 10.2121 157.745 10.4723C159.989 11.4261 162.135 12.5781 164.156 13.9035C164.28 13.9778 164.404 14.0521 164.528 14.1512L165.26 14.6467C165.322 14.6963 165.397 14.7458 165.471 14.783C175.74 22.1162 182.437 34.1193 182.437 47.7081Z" fill="white"/>
<path d="M141.957 88.746C141.312 88.746 140.68 88.734 140.047 88.709C139.551 88.685 139.117 88.66 138.696 88.623C136.463 88.462 134.268 88.102 131.986 87.533C131.527 87.433 131.056 87.297 130.585 87.173C129.059 86.727 127.571 86.207 126.145 85.613L126.009 85.563C125.525 85.352 125.041 85.142 124.557 84.906C122.313 83.866 120.13 82.59 118.084 81.141C117.588 80.7692 117.104 80.4099 116.62 80.0259C113.743 77.7839 111.188 75.1702 109.03 72.2716L109.018 72.2592L108.646 71.8876L108.72 71.8132C108.336 71.3054 107.989 70.8223 107.654 70.3144C105.707 67.3663 104.144 64.1828 103.003 60.8258C102.805 60.2189 102.606 59.5995 102.432 58.9801C101.899 57.0849 101.49 55.1401 101.229 53.2077C101.143 52.5388 101.056 51.8575 101.006 51.1762C100.907 49.9871 100.857 48.8351 100.857 47.7202C100.857 45.8993 100.981 44.0784 101.205 42.3318C101.304 41.5514 101.428 40.7586 101.589 39.9906C102.011 37.7238 102.643 35.4693 103.462 33.3139C103.883 32.1743 104.33 31.1338 104.814 30.1428C106.252 27.108 108.075 24.2465 110.208 21.67C111.424 20.1959 112.738 18.8086 114.103 17.5575C119.684 12.4292 126.505 8.9484 133.847 7.4867L133.983 7.4743C135.62 7.1275 137.48 6.8921 139.378 6.7683C140.854 6.6815 142.292 6.6692 143.706 6.7311C144.711 6.7683 145.728 6.855 146.72 6.9664C148.109 7.1151 149.523 7.3628 150.887 7.6725C151.606 7.8336 152.301 7.9946 153.007 8.1928C154.024 8.4777 155.066 8.8121 156.133 9.1961C156.753 9.4315 157.373 9.6669 157.981 9.927C160.225 10.8808 162.421 12.0576 164.492 13.4078C164.616 13.4821 164.74 13.5688 164.876 13.6679L165.608 14.1634C165.695 14.2253 165.744 14.2625 165.781 14.2873C176.608 22.0045 183.045 34.5031 183.045 47.7326C183.045 48.5625 183.02 49.4049 182.971 50.2224C182.909 51.3125 182.797 52.4026 182.636 53.5793C182.313 55.8214 181.805 58.0511 181.123 60.2189L181.085 60.3303C180.85 61.0364 180.614 61.6929 180.354 62.3742C179.51 64.5915 178.456 66.7345 177.253 68.766L177.166 68.927C176.856 69.4473 176.522 69.9304 176.199 70.4259C174.909 72.3459 173.52 74.0925 172.032 75.6904C171.685 76.0744 171.313 76.4584 170.928 76.83C169.291 78.4528 167.518 79.9516 165.657 81.265C165.261 81.537 164.876 81.797 164.479 82.057C163.227 82.875 161.912 83.643 160.56 84.324C160.151 84.535 159.729 84.745 159.308 84.931C157.249 85.897 155.079 86.69 152.859 87.297C152.387 87.421 151.966 87.533 151.544 87.632C150.192 87.966 148.716 88.239 147.055 88.449C146.546 88.511 146.149 88.561 145.752 88.598C144.401 88.685 143.148 88.746 141.957 88.746ZM126.405 84.361L126.505 84.399C127.931 84.993 129.407 85.513 130.92 85.959C131.366 86.083 131.813 86.207 132.271 86.306C134.504 86.864 136.637 87.21 138.782 87.372C139.217 87.409 139.638 87.433 140.047 87.458C141.957 87.533 143.619 87.508 145.666 87.334C146.05 87.297 146.434 87.248 146.807 87.21C148.518 86.988 149.944 86.727 151.284 86.405C151.705 86.319 152.09 86.207 152.487 86.108C154.694 85.501 156.79 84.733 158.799 83.792C159.208 83.606 159.618 83.408 160.002 83.209C161.317 82.541 162.594 81.797 163.81 81.005C164.194 80.7568 164.566 80.4967 164.951 80.2365C166.749 78.9606 168.473 77.5113 170.073 75.9382C170.445 75.5789 170.792 75.2197 171.127 74.8481C172.578 73.2873 173.93 71.5903 175.145 69.7941C175.467 69.311 175.765 68.8651 176.05 68.4068L176.125 68.2705C177.34 66.2638 178.369 64.1332 179.225 61.9283C179.473 61.2965 179.696 60.6648 179.907 60.0083L179.932 59.934C180.614 57.8034 181.11 55.6108 181.433 53.4059C181.594 52.2663 181.706 51.201 181.768 50.1481C181.817 49.3429 181.842 48.5378 181.842 47.7326C181.842 34.8995 175.591 22.7849 165.137 15.3278C165.087 15.303 164.988 15.2287 164.901 15.1667L164.206 14.696C164.082 14.6093 163.983 14.5474 163.859 14.4731C161.825 13.1353 159.705 12.008 157.522 11.079C156.926 10.8189 156.331 10.5959 155.724 10.3729C154.707 10.0137 153.69 9.6792 152.697 9.3943C152.015 9.2085 151.333 9.0351 150.639 8.8865C149.299 8.5768 147.948 8.3538 146.596 8.2052C145.628 8.0937 144.649 8.0194 143.669 7.9822C142.292 7.9203 140.878 7.9326 139.489 8.0194C137.617 8.1308 135.818 8.3662 134.119 8.713L133.983 8.7254C126.988 10.1376 120.366 13.5069 114.971 18.4741C113.631 19.7005 112.366 21.0383 111.176 22.4752C109.105 24.9774 107.344 27.7397 105.942 30.6879C105.471 31.6541 105.049 32.6574 104.64 33.7599C103.846 35.8533 103.239 38.0335 102.829 40.2384C102.68 40.994 102.569 41.7496 102.457 42.5052C102.234 44.2023 102.11 45.9612 102.11 47.7326C102.11 48.8103 102.16 49.9375 102.246 51.0895C102.296 51.746 102.37 52.4026 102.457 53.0467C102.705 54.9295 103.102 56.8124 103.623 58.6581C103.784 59.2774 103.983 59.872 104.169 60.4542C105.273 63.6997 106.798 66.7964 108.683 69.6455C109.117 70.2896 109.564 70.8842 110.01 71.4912L110.444 71.9247L110.37 71.9619C112.391 74.6004 114.76 76.9663 117.389 79.035C117.86 79.4066 118.332 79.7658 118.815 80.1126C120.787 81.525 122.896 82.751 125.091 83.767C125.537 83.99 125.971 84.176 126.405 84.361Z" fill="black"/>
<path opacity="0.4" d="M170.432 19.3906C169.266 31.9017 165.434 45.9487 155.488 56.292C143.21 69.0384 125.252 72.1104 111.337 72.2466C112.999 74.1543 114.834 75.9009 116.819 77.4493C117.29 77.8209 117.749 78.1677 118.232 78.5145C120.192 79.9143 122.288 81.141 124.495 82.156C124.954 82.379 125.413 82.59 125.884 82.788H125.897C127.323 83.383 128.786 83.903 130.287 84.337C130.746 84.46 131.192 84.584 131.651 84.683C133.76 85.216 135.905 85.575 138.125 85.736H138.137C138.572 85.773 139.006 85.798 139.44 85.823C140.047 85.848 140.667 85.86 141.288 85.86C142.528 85.86 143.756 85.798 144.971 85.699C145.393 85.662 145.802 85.612 146.224 85.563C147.699 85.377 149.15 85.117 150.577 84.77C150.998 84.683 151.408 84.572 151.829 84.46C153.987 83.866 156.071 83.098 158.067 82.169C158.477 81.995 158.873 81.785 159.27 81.587C160.585 80.9177 161.85 80.1868 163.053 79.394C163.437 79.1463 163.809 78.8862 164.194 78.626C166.017 77.3378 167.716 75.9009 169.291 74.3401C169.663 73.9932 170.01 73.6216 170.345 73.2376C171.809 71.6768 173.136 70.0046 174.339 68.2084C174.661 67.7129 174.996 67.2298 175.306 66.7096C175.306 66.7096 175.306 66.7096 175.306 66.6972C176.509 64.7029 177.538 62.5847 178.382 60.3797C178.63 59.7232 178.865 59.0791 179.089 58.3978C179.089 58.3978 179.089 58.3978 179.089 58.3854C179.758 56.292 180.267 54.1118 180.577 51.8821C180.726 50.8169 180.837 49.7392 180.899 48.6491C180.949 47.8563 180.974 47.0512 180.974 46.246C180.949 35.8779 176.955 26.4513 170.432 19.3906Z" fill="#3AC882"/>
<path d="M165.472 14.7818C165.447 14.7818 165.422 14.7942 165.397 14.8066C164.976 14.9553 164.541 15.1163 164.12 15.2773C163.177 15.6118 162.259 15.971 161.317 16.3302C160.92 16.4665 160.523 16.6275 160.114 16.7886C159.333 17.0858 158.539 17.4079 157.758 17.7176C157.361 17.891 156.964 18.0397 156.555 18.2131C155.302 18.7086 154.074 19.2288 152.846 19.7739C152.45 19.9349 152.053 20.1207 151.668 20.2941C149.87 21.0869 148.072 21.9168 146.311 22.7716C145.926 22.9574 145.542 23.1432 145.17 23.3414C143.892 23.9607 142.615 24.6172 141.375 25.2861C140.99 25.4967 140.606 25.6949 140.234 25.9055C139.626 26.24 139.018 26.5744 138.435 26.9089C137.704 27.33 136.972 27.7636 136.253 28.1847C135.881 28.4077 135.521 28.6183 135.161 28.8536C135.099 28.8784 135.05 28.9156 134.975 28.9527H134.963C134.529 29.2253 134.082 29.4978 133.661 29.7579C132.272 30.6374 130.907 31.5293 129.593 32.4583C129.122 32.768 128.638 33.1024 128.179 33.4493C127.36 34.0315 126.542 34.6261 125.748 35.2454C125.227 35.617 124.731 36.001 124.248 36.385C123.069 37.3389 121.904 38.2927 120.8 39.2712C120.217 39.7543 119.659 40.2622 119.101 40.7701C117.65 42.1079 116.261 43.4705 114.946 44.8579V44.8702C113.979 45.8612 113.098 46.8398 112.23 47.8556C112.218 47.8556 112.23 47.8679 112.23 47.8679C110.171 50.2463 108.311 52.6742 106.649 55.2135C105.645 56.7248 104.516 58.5704 103.611 60.6019C103.412 60.0074 103.226 59.4004 103.053 58.7934C103.846 57.1955 104.752 55.7586 105.558 54.5075C110.407 47.1866 116.769 40.51 124.558 34.527C124.57 34.5022 124.595 34.4898 124.62 34.4774C127.447 32.2973 130.486 30.2038 133.71 28.2219C133.71 28.2219 133.723 28.2095 133.735 28.2095C135.062 27.392 136.426 26.5744 137.815 25.794C146.273 21.0126 155.24 17.1973 164.182 13.9023C164.306 13.9767 164.43 14.051 164.554 14.1501L164.765 13.9891C164.951 14.212 165.124 14.4226 165.298 14.658C165.335 14.6951 165.41 14.7447 165.472 14.7818Z" fill="black"/>
<path d="M157.745 10.4714C140.321 17.4577 124.211 28.185 111.275 41.6127C107.344 45.6881 104.268 49.4166 101.837 53.108C101.751 52.4515 101.676 51.7826 101.614 51.1137C103.946 47.7815 106.798 44.375 110.345 40.7084C123.28 27.2931 138.82 16.7764 155.922 9.7529C156.542 9.9759 157.138 10.2113 157.745 10.4714Z" fill="black"/>
<path d="M152.859 8.7624C131.131 17.6193 114.314 28.7058 101.838 42.3936C101.937 41.6256 102.061 40.8452 102.21 40.0896C114.376 27.2565 130.387 16.7398 150.763 8.2422C151.47 8.4032 152.165 8.5643 152.859 8.7624Z" fill="black"/>
<path d="M146.658 7.5482C131.949 13.0976 116.174 21.0378 104.045 33.5117C104.442 32.4464 104.876 31.4058 105.372 30.3901C116.608 19.7 130.473 12.5278 143.681 7.3252C144.686 7.3624 145.678 7.4367 146.658 7.5482Z" fill="black"/>
<path d="M139.415 7.3623C129.208 10.9917 119.597 15.8971 110.68 22.0411C111.858 20.6042 113.148 19.2416 114.512 17.9905L114.524 17.9781C120.7 14.1133 127.199 10.7935 133.958 8.0684H133.97L139.415 7.3623Z" fill="black"/>
<path d="M152.698 86.69C152.276 86.802 151.855 86.925 151.421 87.012C151.272 71.0327 147.725 55.0409 141.152 40.4364C140.681 39.3463 140.16 38.2563 139.639 37.1538C138.25 34.3295 136.749 31.5672 135.149 28.8668C135.112 28.7925 135.063 28.7305 135.025 28.6438L136.129 27.9873C136.166 28.0492 136.204 28.1236 136.241 28.1979C146.733 45.7505 152.45 66.2141 152.698 86.69Z" fill="black"/>
<path d="M160.287 83.754C159.891 83.964 159.481 84.162 159.06 84.348C156.716 63.9218 150.254 43.8174 140.233 25.918C140.221 25.8932 140.209 25.8684 140.196 25.8437L141.325 25.2119C141.337 25.2367 141.362 25.2738 141.374 25.2986C151.395 43.2228 157.906 63.3272 160.287 83.754Z" fill="black"/>
<path d="M165.298 80.7318C164.914 81.004 164.529 81.264 164.145 81.512C160.263 61.4698 155.55 41.2168 145.17 23.3421C145.12 23.2554 145.058 23.1439 145.009 23.0572L146.113 22.4131C146.175 22.5246 146.249 22.6608 146.323 22.7723C156.691 40.6594 161.429 60.7885 165.298 80.7318Z" fill="black"/>
<path d="M171.586 75.2442C171.239 75.6282 170.879 75.9998 170.507 76.359C166.502 58.3481 161.007 38.3304 151.681 20.3071C151.644 20.2452 151.619 20.1709 151.582 20.0965L152.723 19.502C152.773 19.5887 152.822 19.7001 152.859 19.7869C162.099 37.6491 167.568 57.3943 171.586 75.2442Z" fill="black"/>
<path d="M176.646 68.567C176.646 68.5794 176.646 68.5794 176.646 68.5794C176.323 69.1121 175.988 69.6075 175.653 70.1154C171.896 51.9682 165.484 34.5519 156.567 18.238C156.43 17.9655 156.282 17.693 156.133 17.4328L157.261 16.8135C157.423 17.1232 157.596 17.4328 157.757 17.7425C166.501 33.7343 172.838 50.8038 176.646 68.567Z" fill="black"/>
<path d="M180.503 60.094C180.515 60.094 180.503 60.1064 180.503 60.1064C180.267 60.8001 180.044 61.4566 179.783 62.1255C175.009 46.3319 168.423 31.1452 160.114 16.8009C160.039 16.677 159.977 16.5532 159.891 16.4293L160.994 15.7852C161.094 15.971 161.218 16.1568 161.304 16.3426C169.329 30.2038 175.753 44.8578 180.503 60.094Z" fill="black"/>
<path d="M182.363 50.1598C182.301 51.2746 182.177 52.3771 182.028 53.4671C178.084 40.1509 173 26.4012 164.12 15.2899C163.996 15.1165 163.859 14.9678 163.735 14.8068L164.529 14.1503L164.74 13.9893C164.926 14.2122 165.1 14.4228 165.273 14.6582C165.323 14.7077 165.36 14.7573 165.397 14.8192C173.607 25.212 178.568 37.7726 182.363 50.1598Z" fill="black"/>
<path d="M114.959 44.7843C114.946 44.8091 114.934 44.8463 114.921 44.8711C114.909 44.8834 114.909 44.8834 114.909 44.8958C110.903 53.2943 109.092 62.337 109.514 71.8255C109.055 71.2062 108.596 70.5992 108.162 69.9427C108.063 62.2502 109.415 54.8799 112.193 47.8811C112.193 47.8687 112.193 47.8687 112.205 47.8564C112.689 46.6176 113.222 45.4161 113.805 44.2021L114.959 44.7843Z" fill="black"/>
<path d="M120.775 39.2839C117.203 52.9222 116.422 66.7958 118.444 80.6199C117.96 80.2607 117.476 79.9014 117.005 79.5298C115.269 66.5852 115.951 53.5787 119.076 40.7952C119.237 40.1139 119.411 39.445 119.597 38.7637L120.837 39.0857C120.812 39.1353 120.788 39.222 120.775 39.2839Z" fill="black"/>
<path d="M126.244 84.968C125.773 84.758 125.289 84.559 124.83 84.324C121.904 68.5677 121.693 52.1795 124.223 36.3982C124.322 35.7665 124.434 35.1471 124.533 34.5278C124.533 34.503 124.545 34.4906 124.545 34.4658L124.595 34.4782L125.823 34.6888C125.785 34.887 125.761 35.0604 125.736 35.2586C122.933 51.6097 123.119 68.6296 126.244 84.968Z" fill="black"/>
<path d="M132.135 86.912C131.676 86.813 131.205 86.677 130.746 86.553C126.902 69.1243 126.033 51.324 128.167 33.4493C128.216 32.9662 128.278 32.4831 128.353 32L129.63 32.1486C129.618 32.2477 129.605 32.3592 129.593 32.4583C127.261 50.8037 128.117 69.0624 132.135 86.912Z" fill="black"/>
<path d="M140.072 88.09C139.638 88.065 139.179 88.04 138.745 88.003H138.733C134.739 68.8894 133.016 49.3549 133.648 29.7707C133.648 29.2505 133.66 28.7426 133.685 28.2224V28.21H133.71L134.975 28.2595C134.963 28.4949 134.963 28.7178 134.963 28.9532H134.95C134.268 48.8346 135.98 68.6664 140.072 88.09Z" fill="black"/>
<path d="M146.981 87.817C146.559 87.867 146.125 87.916 145.704 87.953C143.087 70.8467 140.768 54.0126 139.627 37.1412C139.614 37.1041 139.614 37.0545 139.614 37.0174L140.904 36.9307C140.978 38.0951 141.065 39.2718 141.152 40.4238C142.367 56.1431 144.55 71.8625 146.981 87.817Z" fill="black"/>
<path d="M212.276 106.758C208.729 112.27 204.339 116.693 199.056 120.223C187.113 128.225 170.631 131.594 149.2 132.474C120.142 133.688 97.931 125.797 78.261 117.361C77.009 116.829 75.781 116.296 74.541 115.751C57.91 108.492 52.192 98.706 49.923 91.819C49.873 91.658 49.811 91.472 49.749 91.299C49.303 89.862 49.005 88.561 48.782 87.459C47.492 81.03 42.345 66.8838 39.766 57.8907C37.186 48.8852 39.766 43.7445 39.766 43.7445C43.623 39.8921 57.786 50.1735 60.365 50.1735C60.849 50.1735 61.345 50.0868 61.804 49.9257C63.292 49.455 64.607 48.4145 65.19 47.8942C65.4 47.7084 65.512 47.5969 65.512 47.5969C65.512 47.5846 65.512 47.5846 65.512 47.5722C62.97 32.1749 70.684 21.8936 73.251 21.8936C75.83 21.8936 86.124 41.1804 86.124 41.1804C86.124 41.1804 86.62 41.4653 87.488 41.9732C89.584 43.2367 93.776 45.8504 97.831 49.1949C100.089 51.0406 102.308 53.134 104.144 55.3141C104.318 55.5247 104.479 55.7105 104.615 55.9211C105.905 57.6058 106.649 59.2285 107.034 60.7149C107.493 62.5111 107.43 64.1338 107.145 65.4716C107.852 64.0099 108.807 62.1642 110.072 60.0213C110.221 59.7487 110.395 59.4515 110.568 59.1665C111.436 57.7296 112.937 55.6486 114.834 53.3198C115.058 53.0473 115.269 52.7872 115.504 52.527C122.052 44.5745 132.458 34.4294 136.315 37.3156C141.461 41.168 135.025 57.8907 132.458 65.5955C131.937 67.1439 131.639 68.8285 131.465 70.5504C130.808 77.4624 132.954 84.672 132.954 84.672C132.954 84.672 132.458 84.882 141.474 86.171C148.927 87.236 154.62 83.891 156.368 82.715C156.331 82.281 156.294 81.761 156.244 81.179C156.096 79.1346 155.624 76.1989 155.637 72.0244C155.699 54.0383 171.114 50.1487 177.563 49.1701C179.126 48.9348 180.093 48.8852 180.093 48.8852C180.093 48.8852 170.953 16.3813 181.383 15.4523C186.009 15.0435 199.403 39.8797 199.403 39.8797C199.403 39.8797 223.86 88.759 212.276 106.758Z" fill="white"/>
<path d="M143.384 133.204C117.414 133.204 96.641 125.921 78.013 117.931C76.76 117.411 75.533 116.866 74.293 116.321C61.159 110.585 52.763 102.41 49.34 92.017L49.166 91.497C48.782 90.258 48.472 89.019 48.186 87.595C47.418 83.779 45.222 77.0408 43.102 70.5376C41.688 66.1897 40.212 61.6808 39.183 58.0761C36.578 48.9468 39.121 43.707 39.22 43.484L39.332 43.323C42.271 40.3872 49.464 44.1901 55.243 47.225C57.426 48.377 59.683 49.5661 60.365 49.5661C60.762 49.5661 61.184 49.4918 61.605 49.3555C63.044 48.8972 64.297 47.8691 64.78 47.4479C64.805 47.4231 64.83 47.3984 64.855 47.386C63.081 36.3366 66.517 27.5913 70.014 23.454C70.708 22.6488 72.035 21.2862 73.226 21.2862C75.93 21.2862 84.003 35.965 86.558 40.7465C86.769 40.8703 87.191 41.1057 87.773 41.4649C90.427 43.0629 94.396 45.6146 98.203 48.7486C100.758 50.842 102.904 52.9354 104.59 54.9545L104.702 55.0908C104.838 55.2642 104.975 55.4253 105.099 55.5987C106.314 57.1842 107.17 58.8813 107.604 60.5907C107.778 61.2472 107.877 61.8913 107.927 62.5479C108.423 61.6188 108.956 60.6774 109.502 59.736C109.688 59.4139 109.849 59.129 110.01 58.8689C110.915 57.37 112.441 55.2642 114.313 52.9602C114.537 52.6877 114.76 52.4276 114.996 52.155C116.633 50.1731 131.205 32.7691 136.649 36.8569C141.66 40.6102 136.959 54.298 133.847 63.353C133.536 64.2449 133.251 65.0872 133.003 65.8305C132.544 67.2178 132.222 68.8405 132.036 70.6491C131.465 76.6073 133.053 82.888 133.425 84.263C133.958 84.399 135.732 84.77 141.511 85.6C148.245 86.567 153.466 83.866 155.674 82.442L155.575 81.277C155.537 80.7322 155.475 80.1376 155.401 79.4687C155.203 77.5487 154.955 75.1704 154.967 72.0612C155.017 54.6325 169.056 49.8758 177.414 48.5875C178.183 48.4761 178.803 48.4017 179.25 48.3646C178.134 44.1653 172.999 23.7389 177.613 17.0622C178.518 15.7492 179.758 15.006 181.284 14.8697C186.034 14.4114 197.63 35.4076 199.899 39.6192C199.974 39.7555 206.1 52.0559 210.726 66.4003C216.977 85.786 217.659 99.474 212.748 107.104C209.176 112.654 204.785 117.113 199.353 120.743C188.03 128.324 172.565 132.127 149.175 133.105C147.253 133.167 145.306 133.204 143.384 133.204ZM40.299 44.1158C39.989 44.8342 38.091 49.7272 40.386 57.7169C41.415 61.3092 42.878 65.7933 44.292 70.1288C46.425 76.6692 48.633 83.433 49.414 87.335C49.687 88.722 49.985 89.923 50.369 91.113L50.543 91.633C53.842 101.654 62.015 109.582 74.813 115.169C76.054 115.714 77.281 116.246 78.522 116.766C97.038 124.707 119.287 133.068 149.2 131.829C172.342 130.875 187.609 127.122 198.733 119.677C204.029 116.147 208.295 111.799 211.78 106.398C223.041 88.895 199.118 40.635 198.87 40.1519C193.773 30.7005 184.471 15.7863 181.457 16.0589C180.304 16.158 179.399 16.703 178.704 17.7187C173.992 24.5317 180.639 48.4637 180.713 48.7114L180.924 49.4546L180.155 49.4918C180.143 49.4918 179.188 49.5414 177.675 49.7643C169.713 50.9907 156.331 55.4996 156.282 72.0117C156.269 75.0465 156.517 77.4001 156.716 79.2829C156.79 79.9642 156.852 80.5712 156.889 81.116L157.05 82.999L156.753 83.21C154.645 84.634 148.915 87.842 141.424 86.765C132.495 85.489 132.445 85.315 132.371 84.746C132.123 83.866 130.262 77.1028 130.882 70.4633C131.068 68.568 131.416 66.8462 131.899 65.3721C132.147 64.6165 132.433 63.7866 132.743 62.8823C135.372 55.2271 140.258 40.9818 135.98 37.7736C132.916 35.4819 123.627 43.6451 116.013 52.8859C115.777 53.1584 115.566 53.4185 115.343 53.6787C113.532 55.9084 111.994 58.0142 111.126 59.4635C110.965 59.7236 110.816 59.9837 110.68 60.2191C109.564 62.1267 108.584 63.9352 107.728 65.7066L105.508 70.3022L106.562 65.3102C106.872 63.8361 106.835 62.3249 106.451 60.8384C106.054 59.29 105.272 57.7417 104.144 56.2676C104.032 56.0942 103.908 55.9579 103.797 55.8216L103.685 55.6854C102.06 53.7406 99.964 51.7091 97.459 49.6528C93.714 46.5808 89.807 44.0538 87.19 42.4807C86.347 41.9728 85.851 41.7003 85.839 41.6879L85.677 41.6012L85.591 41.4401C80.791 32.4595 74.714 22.6612 73.263 22.4878C72.978 22.4878 72.159 22.847 70.994 24.222C67.633 28.1735 64.359 36.6339 66.157 47.4603L66.169 47.8443L65.983 48.0301C65.983 48.0301 65.859 48.154 65.636 48.3522C65.103 48.8229 63.689 49.9749 62.027 50.5075C61.481 50.6934 60.936 50.7801 60.402 50.7801C59.46 50.7801 57.711 49.8882 54.697 48.3026C49.886 45.8004 42.668 41.9976 40.299 44.1158Z" fill="black"/>
<path d="M84.512 41.2547C82.453 41.2547 80.382 41.3538 78.336 41.552C77.083 38.9754 76.054 36.2874 75.26 33.5375C74.95 32.4598 73.499 26.997 74.751 25.6221C78.026 29.1772 84.475 41.2423 84.475 41.2423C84.475 41.2423 84.475 41.2423 84.512 41.2547Z" fill="#BFBFBF"/>
<path d="M43.548 49.1083C44.057 55.5249 49.018 60.5912 51.647 66.4627C53.718 62.3378 55.653 58.1385 57.451 53.8897C57.376 54.0508 49.489 49.2074 48.807 48.7367C46.76 47.2998 43.176 44.3764 43.548 49.1083Z" fill="#BFBFBF"/>
<path d="M74.95 102.062C74.603 102.062 74.33 101.79 74.33 101.443C74.33 101.096 74.603 100.824 74.95 100.824C75.074 100.824 87.861 100.65 95.674 88.201C99.357 82.342 101.49 77.1767 103.561 72.1846C105.992 66.3255 108.287 60.776 112.764 55.1523C112.974 54.8798 113.371 54.8426 113.632 55.0532C113.905 55.2638 113.942 55.6602 113.731 55.9203C109.365 61.4202 107.108 66.8829 104.702 72.6553C102.606 77.6969 100.449 82.912 96.716 88.858C88.53 101.914 75.087 102.062 74.95 102.062Z" fill="black"/>
<path d="M127.869 105.346C127.77 105.346 127.671 105.321 127.584 105.271C127.274 105.11 127.162 104.739 127.323 104.441C127.733 103.661 128.192 102.905 128.675 102.1C130.25 99.487 132.036 96.538 132.607 91.868C133.115 87.756 132.458 85.241 131.776 82.566C131.453 81.315 131.118 80.014 130.92 78.5523C130.424 74.9352 131.007 69.3734 131.032 69.138C131.069 68.8036 131.354 68.5434 131.714 68.593C132.049 68.6301 132.297 68.9274 132.259 69.2743C132.259 69.3238 131.677 74.9228 132.148 78.3912C132.334 79.7786 132.644 80.9925 132.979 82.268C133.661 84.932 134.368 87.682 133.835 92.029C133.227 96.96 131.367 100.032 129.729 102.744C129.258 103.537 128.799 104.28 128.415 105.024C128.303 105.234 128.092 105.346 127.869 105.346Z" fill="black"/>
<path d="M177.378 105.346C177.328 105.346 177.266 105.334 177.216 105.321C176.968 105.259 171.214 103.612 164.405 98.211C155.91 91.472 155.526 80.1133 155.513 79.6302C155.501 79.2834 155.774 79.0108 156.121 78.9985C156.48 78.9861 156.741 79.2586 156.753 79.6054C156.753 79.7169 157.15 90.878 165.174 97.245C171.797 102.497 177.502 104.12 177.551 104.132C177.886 104.219 178.072 104.566 177.985 104.9C177.899 105.173 177.651 105.346 177.378 105.346Z" fill="black"/>
<path d="M173.272 50.7053C172.999 50.7053 172.751 50.5195 172.677 50.247C172.59 49.9126 172.776 49.5781 173.111 49.479C173.433 49.3923 181.11 47.2989 186.802 48.3889C187.137 48.4509 187.36 48.7729 187.298 49.1074C187.236 49.4419 186.902 49.6648 186.579 49.6029C181.172 48.5748 173.532 50.6558 173.458 50.6806C173.383 50.7053 173.321 50.7053 173.272 50.7053Z" fill="black"/>
<path d="M63.106 49.9997C62.92 49.9997 62.722 49.913 62.598 49.7396C62.399 49.4671 62.461 49.0707 62.734 48.8725C62.759 48.8601 64.954 47.2622 67.571 45.528C70.213 43.769 71.478 43.1744 74.702 41.787C75.012 41.6508 75.384 41.7994 75.521 42.1091C75.657 42.4188 75.508 42.7904 75.198 42.9267C72.048 44.2892 70.82 44.8591 68.265 46.5685C65.673 48.2903 63.491 49.8759 63.478 49.8882C63.367 49.9626 63.23 49.9997 63.106 49.9997Z" fill="black"/>
<path d="M80.604 68.2839C80.604 69.7084 79.451 70.848 78.037 70.848C76.611 70.848 75.47 69.696 75.47 68.2839C75.47 66.8593 76.623 65.7197 78.037 65.7197C79.451 65.7197 80.604 66.8593 80.604 68.2839Z" fill="#080B3C"/>
<path d="M94.308 52.428C94.308 53.5677 93.378 54.4967 92.237 54.4967C91.096 54.4967 90.166 53.5677 90.166 52.428C90.166 51.2884 91.096 50.3594 92.237 50.3594C93.378 50.3718 94.308 51.2884 94.308 52.428Z" fill="#080B3C"/>
<path d="M94.805 71.0773L95.109 66.5275L99.059 65.9209" stroke="black"/>
<path d="M91.692 61.1864C90.811 62.2517 90.178 63.5647 89 64.2956C88.765 64.4442 88.504 64.5805 88.43 64.853C88.331 65.2122 88.665 65.5591 89.013 65.6829C89.509 65.8564 90.054 65.782 90.575 65.7077C90.947 65.6458 91.319 65.5962 91.692 65.5343C92.2 65.46 92.733 65.3609 93.143 65.0388C93.874 64.4566 93.899 63.3665 93.713 62.4499C93.626 62.0287 93.477 60.6661 93.093 60.4184C92.634 60.1211 91.952 60.8643 91.692 61.1864Z" fill="#3AC882"/>
<path d="M74.726 92.018C79.719 92.018 83.767 87.975 83.767 82.987C83.767 78 79.719 73.957 74.726 73.957C69.732 73.957 65.685 78 65.685 82.987C65.685 87.975 69.732 92.018 74.726 92.018Z" fill="#F1C21B"/>
<path d="M103.981 56.2311C105.271 57.9158 106.015 59.5385 106.399 61.0249C106.238 61.0497 106.052 61.0497 105.866 61.0497C100.868 61.0497 96.825 57.0115 96.825 52.0195C96.825 51.14 96.949 50.2977 97.185 49.5049C99.442 51.3506 101.662 53.444 103.497 55.6241C103.671 55.8347 103.845 56.0205 103.981 56.2311Z" fill="#F1C21B"/>
<path d="M56.681 94.408C56.632 94.408 56.594 94.383 56.557 94.346C56.495 94.271 56.508 94.172 56.582 94.123L74.602 79.4564C74.664 79.4069 74.776 79.4069 74.825 79.4812C74.887 79.5555 74.875 79.6546 74.801 79.7042L56.781 94.371C56.743 94.395 56.706 94.408 56.681 94.408Z" fill="#080B3C"/>
<path d="M60.96 98.161C60.923 98.161 60.885 98.149 60.848 98.124C60.786 98.062 60.774 97.963 60.836 97.901L76.239 80.5219C76.301 80.4599 76.4 80.4475 76.462 80.5095C76.524 80.5714 76.537 80.6705 76.475 80.7324L61.084 98.099C61.047 98.136 60.997 98.161 60.96 98.161Z" fill="#080B3C"/>
<path d="M67.781 102.595C67.756 102.595 67.731 102.595 67.706 102.583C67.632 102.546 67.595 102.447 67.632 102.372L77.888 81.537C77.925 81.463 78.025 81.426 78.099 81.463C78.173 81.5 78.211 81.599 78.173 81.673L67.929 102.509C67.892 102.558 67.843 102.595 67.781 102.595Z" fill="#080B3C"/>
<path d="M102.221 57.1968C102.184 57.1968 102.159 57.1844 102.134 57.1596C102.085 57.11 102.097 57.0357 102.147 56.9862L114.883 45.7015C114.933 45.6519 115.007 45.6643 115.057 45.7139C115.107 45.7634 115.094 45.8377 115.045 45.8873L102.295 57.172C102.283 57.1844 102.246 57.1968 102.221 57.1968Z" fill="#080B3C"/>
<path d="M101.217 56.0943C101.192 56.0943 101.167 56.0819 101.142 56.0695C101.093 56.0324 101.08 55.9456 101.117 55.8961L112.378 41.8862C112.428 41.8367 112.502 41.8243 112.552 41.8615C112.602 41.8986 112.614 41.9853 112.577 42.0349L101.316 56.0571C101.291 56.0819 101.254 56.0943 101.217 56.0943Z" fill="#080B3C"/>
<path d="M100.212 55.0294C100.2 55.0294 100.175 55.0293 100.162 55.017C100.1 54.9922 100.076 54.9179 100.1 54.8559L108.298 37.2042C108.323 37.1423 108.397 37.1175 108.459 37.1423C108.521 37.1671 108.546 37.2414 108.521 37.3033L100.324 54.9674C100.311 55.0046 100.262 55.0294 100.212 55.0294Z" fill="#080B3C"/>
<path d="M198.833 119.69C186.89 127.692 170.408 131.062 148.977 131.941C119.919 133.155 97.708 125.265 78.038 116.829C81.039 115.429 85.281 115.417 89.299 115.59C98.266 115.987 107.282 116.755 115.951 119.108C121.259 120.545 126.381 122.577 131.714 123.877C147.303 127.655 163.748 125.017 179.201 120.706C185.116 119.046 191.416 117.126 197.295 118.959C197.841 119.145 198.386 119.356 198.833 119.69Z" fill="#3AC882"/>
<path d="M140.978 183.001C140.841 183.001 140.717 182.963 140.593 182.877C137.84 180.845 134.987 178.739 131.676 177.748C128.551 176.807 125.302 176.906 121.866 177.018C118.728 177.117 115.467 177.228 112.354 176.435C109.948 175.828 108.224 174.763 107.244 173.264C105.657 170.849 106.302 167.665 107.629 165.584C109.067 163.33 111.325 161.794 113.334 160.53C114.785 159.614 116.273 158.734 117.761 157.855C120.415 156.282 123.156 154.659 125.674 152.826C130.151 149.555 133.239 145.963 134.851 142.16C136.748 137.688 136.786 132.845 136.823 127.729C136.86 123.22 136.885 118.55 138.336 114.215C138.658 113.236 139.13 112.134 139.787 111.106C139.415 110.127 139.229 109.173 139.117 108.442C138.522 104.218 139.539 99.759 141.908 96.204C143.098 94.408 144.673 93.157 146.211 91.943C149.039 89.701 151.482 87.756 151.358 82.912C151.346 82.553 151.631 82.268 151.99 82.256H152.003C152.35 82.256 152.635 82.528 152.648 82.888C152.784 88.375 149.845 90.704 147.017 92.958C145.566 94.11 144.066 95.3 142.987 96.922C140.792 100.217 139.849 104.342 140.407 108.269C140.481 108.826 140.605 109.359 140.742 109.867C141.498 109.025 142.441 108.331 143.594 107.934C145.157 107.402 147.117 107.773 148.493 108.863C149.597 109.743 150.155 110.969 150.019 112.22C149.882 113.434 149.126 114.5 147.91 115.144C146.422 115.937 144.562 115.961 143.148 115.23C141.92 114.586 141.064 113.608 140.457 112.542C140.085 113.249 139.787 113.967 139.576 114.636C138.2 118.786 138.162 123.344 138.125 127.754C138.088 132.783 138.051 137.973 136.054 142.68C134.343 146.694 131.118 150.46 126.455 153.878C123.888 155.761 121.122 157.396 118.443 158.982C116.967 159.849 115.492 160.729 114.053 161.633C112.168 162.822 110.047 164.259 108.745 166.29C107.641 168.025 107.083 170.638 108.348 172.571C109.142 173.797 110.605 174.676 112.689 175.197C115.628 175.94 118.791 175.828 121.841 175.729C125.24 175.618 128.737 175.506 132.073 176.51C135.583 177.575 138.658 179.842 141.374 181.836C141.66 182.047 141.722 182.456 141.511 182.74C141.374 182.914 141.176 183.001 140.978 183.001ZM141.238 111.254C141.846 112.555 142.689 113.533 143.731 114.078C144.76 114.624 146.186 114.586 147.29 114.004C147.774 113.744 148.605 113.149 148.716 112.084C148.84 110.982 148.109 110.214 147.662 109.867C146.633 109.037 145.157 108.752 143.991 109.148C142.85 109.532 141.945 110.325 141.238 111.254Z" fill="black"/>
<path d="M136.166 37.5619C133.264 35.3941 126.356 41.2161 120.626 47.4097C123.367 50.3206 128.34 54.4456 135.31 55.5356C137.567 48.3511 139.489 40.0393 136.166 37.5619Z" fill="#3AC882"/>
<path d="M181.482 16.1081C175.38 16.6531 176.534 28.8916 178.196 37.798C181.829 38.3926 187.733 38.2316 195.744 34.4287C191.937 27.814 184.583 15.8356 181.482 16.1081Z" fill="#3AC882"/>
<path d="M62.759 50.3703C62.759 50.3703 68.873 56.4895 70.46 55.2756C71.849 54.2103 65.859 48.1777 65.859 48.1777L62.759 50.3703Z" fill="#3AC882"/>
<path d="M66.715 47.4594C66.715 47.4594 74.057 54.9784 76.128 53.43C78.149 51.9188 70.138 45.3164 70.138 45.3164L66.715 47.4594Z" fill="#3AC882"/>
<path d="M71.514 44.5488C71.514 44.5488 77.628 50.6681 79.215 49.4541C80.604 48.3888 75.16 42.9385 75.16 42.9385L71.514 44.5488Z" fill="#3AC882"/>
<path d="M112.502 76.7798C109.526 75.9871 106.388 73.7326 104.652 72.6797C103.461 75.7022 102.63 77.5478 101.278 80.4836C108.236 83.729 115.578 83.382 117.438 81.413C119.584 79.1458 116.744 77.9071 112.502 76.7798Z" fill="#3AC882"/>
<path d="M104.156 93.18C101.217 92.251 98.302 90.294 96.615 89.167C94.792 91.669 93.18 93.75 90.39 96.029C97.198 99.585 106.934 99.919 108.881 98.036C111.126 95.856 108.348 94.493 104.156 93.18Z" fill="#3AC882"/>
<path d="M170.147 58.336C167.617 56.5894 167.034 55.4745 165.757 53.9014C163.586 55.3383 161.565 56.7009 159.891 59.4632C165.347 64.8764 170.817 65.6072 173.223 64.3685C176.013 62.944 173.768 60.8258 170.147 58.336Z" fill="#3AC882"/>
<path d="M164.913 76.2231C161.912 76.9167 158.402 76.7062 156.38 76.5947C156.331 80.0383 157.025 82.454 157.683 85.29C165.359 84.906 170.742 80.6205 171.461 78.0192C172.28 74.9967 169.179 75.2321 164.913 76.2231Z" fill="#3AC882"/>
<path d="M223.252 50.6431C223.177 51.374 228.027 52.7118 231.226 53.4302C231.077 50.7422 230.829 48.0171 230.358 45.3662C227.506 47.1623 223.326 49.9123 223.252 50.6431Z" fill="#3AC882"/>
<path d="M223.413 63.2778C223.165 63.8971 227.071 66.2755 229.7 67.7C230.246 65.3216 230.705 62.869 230.941 60.4287C228.001 61.2958 223.661 62.6584 223.413 63.2778Z" fill="#3AC882"/>
<path d="M219.866 75.3929C219.519 75.9751 223.016 78.9233 225.372 80.7442C226.29 78.4773 227.133 76.1238 227.753 73.7578C224.703 74.1418 220.201 74.8107 219.866 75.3929Z" fill="#3AC882"/>
<path d="M71.775 66.3752C71.775 66.3752 71.365 62.7829 76.029 61.8291" stroke="black" stroke-miterlimit="10" stroke-linecap="round" stroke-linejoin="round"/>
<path d="M86.471 51.0517C86.471 51.0517 86.384 47.4347 91.109 46.8896" stroke="black" stroke-miterlimit="10" stroke-linecap="round" stroke-linejoin="round"/>
</svg>
