<svg width="474" height="250" viewBox="0 0 474 250" fill="none" xmlns="http://www.w3.org/2000/svg">
<rect x="165.397" y="12.7246" width="139.97" height="211.826" fill="#303030"/>
<path d="M204.855 71.7965H201.968L201.25 69.5234L200.55 71.7965H197.584L199.923 73.8208L198.804 77.4396L201.25 74.963L203.759 77.4396L202.595 73.7812L204.855 71.7965Z" fill="#F1C21B"/>
<path d="M205.081 111.225H203.843L203.538 110.252L203.239 111.225H201.968L202.968 112.09L202.493 113.639L203.538 112.576L204.612 113.639L204.115 112.073L205.081 111.225Z" fill="white"/>
<path d="M219.408 155.912H218.17L217.865 154.939L217.566 155.912H216.295L217.295 156.777L216.82 158.326L217.865 157.263L218.939 158.326L218.442 156.76L219.408 155.912Z" fill="white"/>
<path d="M176.744 200.823H175.506L175.201 199.85L174.902 200.823H173.631L174.631 201.688L174.156 203.237L175.201 202.174L176.275 203.237L175.778 201.671L176.744 200.823Z" fill="white"/>
<path d="M282.656 102.573H281.419L281.113 101.606L280.814 102.573H279.543L280.543 103.438L280.068 104.988L281.113 103.93L282.181 104.988L281.69 103.427L282.656 102.573Z" fill="white"/>
<path d="M205.763 97.6425H204.532L204.221 96.6699L203.922 97.6425H202.656L203.656 98.5076L203.176 100.057L204.221 98.9995L205.294 100.057L204.797 98.4906L205.763 97.6425Z" fill="white"/>
<path d="M273.295 136.451H272.063L271.752 135.479L271.453 136.451H270.188L271.187 137.316L270.707 138.866L271.752 137.808L272.826 138.866L272.329 137.299L273.295 136.451Z" fill="white"/>
<path d="M301.738 25.6728H300.506L300.196 24.7002L299.896 25.6728H298.631L299.631 26.5379L299.151 28.0872L300.196 27.0298L301.269 28.0872L300.772 26.5209L301.738 25.6728Z" fill="white"/>
<path d="M180.48 27.1698H179.249L178.938 26.1973L178.638 27.1698H177.373L178.373 28.0349L177.893 29.5843L178.938 28.5269L180.011 29.5843L179.514 28.018L180.48 27.1698Z" fill="white"/>
<path d="M183.474 129.715H182.243L181.932 128.742L181.633 129.715H180.367L181.367 130.58L180.887 132.129L181.932 131.072L183.005 132.129L182.508 130.563L183.474 129.715Z" fill="white"/>
<path d="M162.451 101.833H161.213L160.908 100.86L160.609 101.833H159.338L160.338 102.698L159.863 104.247L160.908 103.19L161.982 104.247L161.485 102.681L162.451 101.833Z" fill="white"/>
<path d="M167.53 125.411H166.298L165.988 124.444L165.688 125.411H164.423L165.423 126.276L164.943 127.826L165.988 126.768L167.061 127.826L166.564 126.259L167.53 125.411Z" fill="white"/>
<path d="M277.103 78.2313H275.866L275.561 77.2588L275.261 78.2313H273.99L274.99 79.0965L274.516 80.6458L275.561 79.5828L276.628 80.6458L276.137 79.0795L277.103 78.2313Z" fill="white"/>
<path d="M267.923 45.1982H267.031L266.81 44.4971L266.59 45.1982H265.675L266.398 45.8259L266.053 46.9454L266.81 46.1764L267.584 46.9454L267.228 45.8145L267.923 45.1982Z" fill="white"/>
<path d="M216.006 78.4287H215.114L214.893 77.7275L214.673 78.4287H213.758L214.481 79.0563L214.136 80.1759L214.893 79.4069L215.667 80.1759L215.311 79.045L216.006 78.4287Z" fill="white"/>
<path d="M182.505 85.6611H181.613L181.387 84.96L181.172 85.6611H180.257L180.98 86.2831L180.635 87.4027L181.387 86.6393L182.166 87.4027L181.805 86.2718L182.505 85.6611Z" fill="white"/>
<path d="M230.671 45.1133H229.779L229.558 44.4121L229.338 45.1133H228.423L229.146 45.7409L228.801 46.8605L229.558 46.0971L230.332 46.8605L229.971 45.7296L230.671 45.1133Z" fill="white"/>
<path d="M297.677 88.8164H296.785L296.564 88.1152L296.344 88.8164H295.429L296.152 89.4384L295.807 90.5636L296.564 89.7946L297.338 90.5636L296.977 89.4271L297.677 88.8164Z" fill="white"/>
<path d="M274.431 61.1094H273.533L273.312 60.4082L273.098 61.1094H272.177L272.906 61.737L272.555 62.8566L273.312 62.0876L274.086 62.8566L273.73 61.7257L274.431 61.1094Z" fill="white"/>
<path d="M189.373 61.4374L188.426 60.6421L188.817 59.701L187.963 60.2535L186.989 59.4364L187.199 60.7419L185.839 61.6236L187.323 61.4812L187.458 62.9818L188.088 61.4661L189.373 61.4374Z" fill="white"/>
<path d="M203.577 30.2325L202.893 29.6587L203.175 28.98L202.556 29.3754L201.855 28.7871L202.005 29.7327L201.022 30.3687L202.096 30.2663L202.194 31.3529L202.649 30.2579L203.577 30.2325Z" fill="white"/>
<path d="M198.333 46.6043L197.645 46.0268L197.927 45.3481L197.312 45.7472L196.607 45.1552L196.762 46.1045L195.774 46.7369L196.848 46.6345L196.946 47.7211L197.401 46.626L198.333 46.6043Z" fill="white"/>
<path d="M302.028 106.306H301.135L300.909 105.604L300.694 106.306H299.779L300.502 106.928L300.158 108.047L300.909 107.284L301.689 108.047L301.327 106.916L302.028 106.306Z" fill="white"/>
<path d="M281.447 141.408H280.554L280.328 140.707L280.113 141.408H279.198L279.921 142.036L279.577 143.155L280.328 142.392L281.108 143.155L280.746 142.025L281.447 141.408Z" fill="white"/>
<path d="M266.273 103.998H265.38L265.16 103.297L264.94 103.998H264.024L264.748 104.626L264.403 105.745L265.16 104.976L265.934 105.745L265.572 104.614L266.273 103.998Z" fill="white"/>
<path d="M215.509 109.461H214.617L214.391 108.76L214.176 109.461H213.261L213.984 110.089L213.639 111.208L214.391 110.439L215.17 111.208L214.809 110.077L215.509 109.461Z" fill="white"/>
<path d="M239.501 97.2578H238.609L238.383 96.5566L238.168 97.2578H237.253L237.976 97.8854L237.631 99.005L238.383 98.236L239.162 99.005L238.801 97.8741L239.501 97.2578Z" fill="white"/>
<path d="M245.49 59.084H244.597L244.371 58.3828L244.156 59.084H243.241L243.964 59.7116L243.62 60.8312L244.371 60.0622L245.151 60.8312L244.789 59.7003L245.49 59.084Z" fill="white"/>
<path d="M295.639 160.881H294.746L294.52 160.18L294.306 160.881H293.391L294.114 161.508L293.769 162.628L294.52 161.859L295.3 162.628L294.939 161.497L295.639 160.881Z" fill="white"/>
<path d="M201.327 181.838H200.435L200.209 181.137L199.994 181.838H199.079L199.802 182.466L199.458 183.586L200.209 182.817L200.989 183.586L200.627 182.455L201.327 181.838Z" fill="white"/>
<path d="M217.795 202.796H216.903L216.677 202.095L216.462 202.796H215.547L216.27 203.424L215.925 204.544L216.677 203.775L217.456 204.544L217.095 203.413L217.795 202.796Z" fill="white"/>
<path d="M175.218 152.315H173.981L173.676 151.343L173.377 152.315H172.105L173.105 153.175L172.631 154.73L173.676 153.667L174.744 154.73L174.252 153.163L175.218 152.315Z" fill="white"/>
<path d="M278.657 180.22H277.425L277.114 179.248L276.815 180.22H275.544L276.55 181.085L276.069 182.635L277.114 181.577L278.188 182.635L277.691 181.068L278.657 180.22Z" fill="white"/>
<path d="M203.951 127.441H202.719L202.408 126.469L202.109 127.441H200.838L201.843 128.306L201.363 129.856L202.408 128.798L203.482 129.856L202.985 128.289L203.951 127.441Z" fill="white"/>
<path d="M170.637 224.551H255.966C229.503 202.956 188.053 192.1 170.637 189.371V224.551Z" fill="#555555"/>
<path d="M305.367 224.55H140.697C191.766 193.766 271.756 178.29 305.367 174.4V224.55Z" fill="#494949"/>
<g clip-path="url(#clip0_7643_19446)">
<path d="M268.869 178.36C268.869 178.36 265.995 124.205 266.773 119.161C267.552 114.108 273.375 112.948 274.932 117.604C276.489 122.267 276.1 180.134 276.1 180.134L268.869 178.36Z" fill="#686868"/>
<path d="M269.349 149.573C269.349 149.573 259.813 151.354 254.483 142.297C250.539 135.613 247.859 121.938 252.223 120.643C256.587 119.348 256.886 132.746 261.437 139.386C265.636 145.523 269.191 144.071 269.191 144.071C272.769 143.974 272.926 149.468 269.349 149.573Z" fill="#686868"/>
<path d="M276.796 135.171C276.796 135.171 286.489 134.917 289.813 124.954C292.268 117.589 292.036 103.659 287.5 103.308C282.964 102.956 285.471 116.115 282.41 123.562C279.588 130.448 275.801 129.767 275.801 129.767C272.283 130.404 273.271 135.815 276.796 135.171Z" fill="#686868"/>
<path opacity="0.5" d="M251.766 123.195C251.938 125.942 252.297 128.696 252.844 131.384C253.428 134.063 254.124 136.735 255.329 139.168C255.883 140.411 256.609 141.548 257.402 142.641C258.241 143.696 259.176 144.67 260.239 145.485C262.365 147.095 265.059 148.075 267.754 147.978L267.814 148.39C264.955 148.764 262.058 147.858 259.708 146.219C257.357 144.55 255.606 142.177 254.378 139.625C253.166 137.05 252.44 134.31 251.953 131.548C251.496 128.779 251.257 125.994 251.347 123.188L251.766 123.195Z" fill="#4A4A4A"/>
<path opacity="0.5" d="M276.998 133.6C278.315 133.143 279.61 132.559 280.815 131.871C282.035 131.19 283.188 130.404 284.206 129.476C285.217 128.54 286.122 127.507 286.788 126.317C287.44 125.142 287.859 123.787 288.203 122.455C288.922 119.767 289.124 116.953 289.094 114.154C289.034 111.354 288.72 108.54 288.009 105.808L288.405 105.681C289.386 108.383 289.835 111.25 290 114.116C290.127 116.991 289.925 119.895 289.221 122.717C288.832 124.124 288.398 125.494 287.649 126.811C286.901 128.091 285.92 129.229 284.797 130.157C282.544 132.028 279.895 133.3 277.095 134.004L276.998 133.6Z" fill="#4A4A4A"/>
<path opacity="0.5" d="M273.211 117.881C273.69 122.858 273.981 127.843 274.206 132.828C274.438 137.813 274.543 142.806 274.655 147.799C274.722 152.791 274.76 157.784 274.73 162.769L274.648 170.254L274.453 177.739H274.034L273.6 147.821C273.54 142.836 273.42 137.851 273.3 132.866L273.083 125.388C273.016 122.896 272.934 120.403 272.799 117.918L273.211 117.881Z" fill="#4A4A4A"/>
<path d="M267.881 179.071C267.881 179.071 263.72 175.5 264.61 174.512C265.501 173.524 270.561 177.686 270.561 177.686C270.561 177.686 269.768 173.524 271.354 173.524C272.941 173.524 274.034 178.083 274.034 178.083C274.034 178.083 276.115 174.909 277.006 175.209C277.896 175.508 276.309 178.577 276.309 178.577C276.309 178.577 280.471 176.99 280.576 178.577C280.673 180.164 276.018 180.658 276.018 180.658C276.018 180.658 279.191 181.848 278.592 182.641C278.001 183.435 272.544 180.463 272.544 180.463C272.544 180.463 272.245 182.641 271.16 182.544C270.067 182.447 271.354 180.366 271.354 180.366C271.354 180.366 266.003 182.544 265.112 180.762C264.214 178.974 267.881 179.071 267.881 179.071Z" fill="#222222"/>
</g>
<path d="M246.775 142.992H243.883L243.165 140.719L242.465 142.992H239.499L241.838 145.016L240.719 148.635L243.165 146.158L245.674 148.635L244.516 144.977L246.775 142.992Z" fill="#F1C21B"/>
<g clip-path="url(#clip1_7643_19446)">
<path d="M189.463 194.369C189.463 194.369 187.85 163.886 188.286 161.044C188.721 158.202 191.987 157.546 192.858 160.17C193.729 162.793 193.511 195.373 193.511 195.373L189.463 194.369Z" fill="#636363"/>
<path d="M190.91 169.918C188.503 169.511 186.767 168.051 186.644 166.338C186.22 160.506 185.349 147.743 185.685 146.236C186.12 144.275 189.386 143.826 190.257 145.634C191.128 147.442 190.91 169.918 190.91 169.918Z" fill="#636363"/>
<path d="M189.733 185.636C189.733 185.636 184.39 186.635 181.394 181.541C179.187 177.777 177.681 170.078 180.123 169.352C182.571 168.625 182.736 176.164 185.29 179.905C187.644 183.361 189.639 182.546 189.639 182.546C191.645 182.481 191.74 185.577 189.733 185.636Z" fill="#636363"/>
<path d="M193.905 175.692C193.905 175.692 199.343 175.55 201.203 169.937C202.58 165.795 202.45 157.948 199.902 157.747C197.36 157.546 198.76 164.956 197.048 169.151C195.465 173.027 193.346 172.643 193.346 172.643C191.375 173.009 191.928 176.052 193.905 175.692Z" fill="#636363"/>
<path opacity="0.5" d="M179.87 170.781C179.97 172.329 180.17 173.877 180.476 175.39C180.8 176.897 181.194 178.403 181.871 179.774C182.183 180.471 182.589 181.115 183.036 181.73C183.507 182.321 184.03 182.87 184.625 183.331C185.819 184.235 187.326 184.785 188.838 184.737L188.874 184.968C187.267 185.181 185.643 184.667 184.325 183.745C183.006 182.805 182.024 181.47 181.335 180.028C180.658 178.581 180.252 177.033 179.976 175.485C179.717 173.925 179.587 172.359 179.635 170.781H179.87Z" fill="#3D3D3D"/>
<path opacity="0.5" d="M186.82 146.757C186.962 148.518 187.091 150.278 187.197 152.039L187.491 157.321L187.738 162.604C187.78 163.484 187.815 164.365 187.88 165.239C187.874 166.078 188.333 166.882 189.045 167.319L188.939 167.532C188.109 167.106 187.538 166.214 187.474 165.28C187.368 164.394 187.303 163.52 187.232 162.633C187.097 160.873 187.009 159.112 186.903 157.351C186.826 155.59 186.744 153.824 186.691 152.063C186.632 150.302 186.603 148.535 186.591 146.769L186.82 146.757Z" fill="#505050"/>
<path opacity="0.5" d="M194.022 174.805C194.758 174.545 195.488 174.22 196.165 173.83C196.847 173.446 197.494 173.003 198.065 172.477C198.63 171.951 199.142 171.366 199.513 170.698C199.878 170.037 200.113 169.274 200.307 168.524C200.713 167.011 200.825 165.422 200.808 163.85C200.772 162.273 200.596 160.689 200.201 159.153L200.425 159.082C200.972 160.606 201.225 162.22 201.32 163.833C201.39 165.452 201.278 167.082 200.884 168.672C200.666 169.464 200.419 170.238 200.001 170.976C199.578 171.697 199.03 172.335 198.401 172.861C197.135 173.913 195.653 174.628 194.081 175.029L194.022 174.805Z" fill="#505050"/>
<path d="M189.463 156.417C189.463 156.417 194.9 156.275 196.76 150.662C198.137 146.52 198.007 138.674 195.459 138.473C192.917 138.272 194.318 145.681 192.605 149.876C191.022 153.752 188.904 153.368 188.904 153.368C186.938 153.735 187.491 156.784 189.463 156.417Z" fill="#636363"/>
<path opacity="0.5" d="M189.58 155.537C190.316 155.277 191.045 154.952 191.722 154.562C192.405 154.178 193.052 153.735 193.623 153.209C194.188 152.683 194.7 152.099 195.071 151.431C195.435 150.769 195.671 150.007 195.865 149.256C196.271 147.744 196.383 146.154 196.365 144.583C196.33 143.005 196.153 141.422 195.759 139.885L195.983 139.814C196.53 141.339 196.783 142.952 196.877 144.565C196.948 146.184 196.836 147.815 196.442 149.404C196.224 150.196 195.977 150.97 195.559 151.709C195.135 152.429 194.588 153.068 193.958 153.593C192.693 154.645 191.21 155.36 189.639 155.762L189.58 155.537Z" fill="#505050"/>
<path opacity="0.5" d="M191.899 160.323C192.163 163.124 192.328 165.931 192.452 168.737C192.581 171.544 192.64 174.356 192.705 177.163C192.74 179.975 192.764 182.782 192.746 185.594L192.699 189.807L192.593 194.02H192.358L192.11 177.175C192.075 174.368 192.01 171.561 191.94 168.755L191.816 164.548C191.781 163.148 191.734 161.741 191.657 160.341L191.899 160.323Z" fill="#505050"/>
<path d="M188.909 194.77C188.909 194.77 186.573 192.761 187.073 192.206C187.573 191.65 190.41 193.99 190.41 193.99C190.41 193.99 189.963 191.645 190.857 191.645C191.746 191.645 192.358 194.209 192.358 194.209C192.358 194.209 193.523 192.424 194.023 192.59C194.523 192.755 193.635 194.487 193.635 194.487C193.635 194.487 195.971 193.594 196.024 194.487C196.077 195.379 193.47 195.656 193.47 195.656C193.47 195.656 195.247 196.324 194.918 196.773C194.582 197.222 191.528 195.544 191.528 195.544C191.528 195.544 191.363 196.773 190.751 196.714C190.139 196.661 190.863 195.485 190.863 195.485C190.863 195.485 187.862 196.714 187.361 195.71C186.85 194.711 188.909 194.77 188.909 194.77Z" fill="#3D3D3D"/>
</g>
<path d="M155.143 2.69336V234.478H170.759V18.3143H303.748V234.478H319.364V2.69336H155.143Z" fill="#3AC882"/>
<path d="M164.587 234.478H170.759V18.3141H303.747V234.478H309.92V12.8955H164.587V234.478Z" fill="#30AE75"/>
<path d="M128.342 139.154C127.149 139.154 126.175 138.18 126.175 136.987V115.816C126.175 114.623 127.149 113.648 128.342 113.648C129.535 113.648 130.509 114.623 130.509 115.816V136.987C130.509 138.18 129.535 139.154 128.342 139.154Z" fill="#555555"/>
<path d="M135.105 128.996H124.829C123.603 128.996 122.618 128 122.618 126.784C122.618 125.558 123.603 124.573 124.829 124.573H135.105V128.996Z" fill="#433B4A"/>
<path d="M139.526 250.001L170.76 234.478V18.3144L139.526 2.79199V250.001Z" fill="#309C6B"/>
<path d="M167.542 122.855L143.608 122.472V13.5742L167.542 24.6194V122.855Z" fill="#3AC882"/>
<path d="M167.542 228.184L143.608 239.229V130.321L167.542 129.938V228.184Z" fill="#3AC882"/>
<path d="M133.967 247.713L139.515 249.694V3.10938L133.967 5.07978V247.713Z" fill="#3AC882"/>
<defs>
<clipPath id="clip0_7643_19446">
<rect width="41.3848" height="79.4835" fill="white" transform="translate(249.978 103.293)"/>
</clipPath>
<clipPath id="clip1_7643_19446">
<rect width="23.2036" height="58.3832" fill="white" transform="translate(178.87 138.473)"/>
</clipPath>
</defs>
</svg>
