<svg id="Layer_1" data-name="Layer 1" xmlns="http://www.w3.org/2000/svg" xmlns:xlink="http://www.w3.org/1999/xlink" viewBox="0 0 136.71 58.65"><defs><style>.cls-1,.cls-5{fill:#fff;}.cls-2{fill:#0ad418;}.cls-3{fill:url(#radial-gradient);}.cls-4{fill:url(#linear-gradient);}.cls-5{stroke:#fff;stroke-miterlimit:10;stroke-width:0.11px;}</style><radialGradient id="radial-gradient" cx="75.55" cy="991.02" fx="65.68800335780571" r="12.03" gradientTransform="translate(0 -970)" gradientUnits="userSpaceOnUse"><stop offset="0" stop-color="#8cff00"/><stop offset="0.16" stop-color="#7ffb02"/><stop offset="0.44" stop-color="#5cef09"/><stop offset="0.83" stop-color="#25dd13"/><stop offset="1" stop-color="#0ad418"/></radialGradient><linearGradient id="linear-gradient" x1="75.4" y1="979.87" x2="75.4" y2="990.68" gradientTransform="translate(0 -970)" gradientUnits="userSpaceOnUse"><stop offset="0" stop-color="#fff"/><stop offset="1" stop-color="#fff" stop-opacity="0"/></linearGradient></defs><title>Logo-fix2</title><g id="Layer_1-2" data-name="Layer 1"><path class="cls-1" d="M69.5,1.14a20.29,20.29,0,0,0-13,12.7,22.35,22.35,0,0,0-1.2,7.3A19.41,19.41,0,0,0,60.8,35l.2.3.1.1.1.1a22,22,0,0,0,25.9,3.8,19.36,19.36,0,0,0,9.6-11.2,22.65,22.65,0,0,0,1.1-6.9C98,7.34,84.4-3.66,69.5,1.14Z"/><path class="cls-1" d="M131.2,3.64,131.1,37c0,3.6,2,1.2,2.5-.1a45.91,45.91,0,0,0,3.1-16.4A48.29,48.29,0,0,0,134,3.64C133.4,2.44,131.2-.76,131.2,3.64Z"/><path class="cls-1" d="M103.9,33.44c0,5.2-7.7,5.5-7.7,5.5h19.3a18.5,18.5,0,0,0,4.1-.2,1.29,1.29,0,0,0,.6-2.1l-16.3-19.8c0,3.8,0,9.2-.1,12.4A28.58,28.58,0,0,1,103.9,33.44Z"/><path class="cls-1" d="M98.2,1.44a10.45,10.45,0,0,1,7.7,3.8c.8,1,14.3,17.4,14.3,17.4a1.25,1.25,0,0,0,1.7.2,1.09,1.09,0,0,0,.4-.9l.1-17.3a2.88,2.88,0,0,0-2.2-2.8,15.53,15.53,0,0,0-3.7-.4Z"/><path class="cls-2" d="M69.5,1.14a20.29,20.29,0,0,0-13,12.7,22.35,22.35,0,0,0-1.2,7.3A19.41,19.41,0,0,0,60.8,35l.2.3.1.1.1.1a22,22,0,0,0,25.9,3.8,19.36,19.36,0,0,0,9.6-11.2,22.65,22.65,0,0,0,1.1-6.9C98,7.34,84.4-3.66,69.5,1.14Zm12.6,38.8a22.4,22.4,0,0,1-6.8,1,19.43,19.43,0,0,1-13.5-5.8,19.65,19.65,0,0,1-4.6-20.6,19,19,0,0,1,12.1-12,23.93,23.93,0,0,1,6.5-1.1,19.29,19.29,0,0,1,13.8,5.8,19.82,19.82,0,0,1,4.6,20.7A19.25,19.25,0,0,1,82.1,39.94Z"/><path class="cls-1" d="M50.7,27.44V24c0-3.3-.7-5.9-2-7.6a7.35,7.35,0,0,0-5.9-2.7,6.79,6.79,0,0,0-5.7,2.8c-1.3,1.8-2,4.3-2,7.7v5c0,3.1.6,5.5,1.9,7.1a7,7,0,0,0,5.8,2.5,7.15,7.15,0,0,0,5.4-2,9.62,9.62,0,0,0,2.3-5.9H46.4V31a5.82,5.82,0,0,1-1.1,3.1,2.9,2.9,0,0,1-2.3,1,2.63,2.63,0,0,1-2.6-1.5,8.9,8.9,0,0,1-.8-4.8v-1.4Zm-4.4-4.8V24H39.7v-.7a8,8,0,0,1,.9-4.3,2.82,2.82,0,0,1,2.6-1.3A2.65,2.65,0,0,1,45.5,19,6.37,6.37,0,0,1,46.3,22.64Z"/><path class="cls-1" d="M24.7,4.84a.94.94,0,0,0,1-1V2.14a.94.94,0,0,0-1-1H16.3a.94.94,0,0,0-1,1v1.7a.94.94,0,0,0,1,1h1.5a.47.47,0,0,1,.5.5v.2l-5.4,23.4v0L7.7,5.44c-.1-.3.1-.6.3-.6H9.8a.94.94,0,0,0,1-1V2.14a.94.94,0,0,0-1-1H1a.94.94,0,0,0-1,1v1.7a.94.94,0,0,0,1,1h.6a1,1,0,0,1,.9.7l6.6,26.3,1.8,7.1h3.7l8.1-33.4a1,1,0,0,1,.9-.7Z"/><path class="cls-1" d="M25.5,9.34V7.64a1,1,0,0,1,1-1h2.3a1,1,0,0,1,1,1v1.7a1,1,0,0,1-1,1H26.5A.94.94,0,0,1,25.5,9.34Z"/><path class="cls-1" d="M31.4,35.44h-.8a.68.68,0,0,1-.7-.7l.1-18.9a.94.94,0,0,0-1-1H24a.94.94,0,0,0-1,1v1.6a.94.94,0,0,0,1,1h.8a.68.68,0,0,1,.7.7l-.1,15.6a.68.68,0,0,1-.7.7s-1.8.5-1.8,1v2.5h9.5v-2.5a.94.94,0,0,0-1-1Z"/><circle class="cls-3" cx="75.4" cy="20.94" r="11.7"/><ellipse class="cls-4" cx="75.4" cy="16.24" rx="8.6" ry="6.6"/><path class="cls-5" d="M8.4,58.24H7.9c-.2,0-.3-.1-.5-.3l-2.6-3.2-.8.8v2.4a.27.27,0,0,1-.3.3H3.3a.27.27,0,0,1-.3-.3V51c0-.2.1-.3.2-.3h.4a.27.27,0,0,1,.3.3v3.5L7.3,51c.2-.2.3-.3.5-.3h.5a.22.22,0,0,1,.2.2c0,.1,0,.2-.1.2l-3.1,3.1L8.4,58C8.7,58.14,8.6,58.24,8.4,58.24Z"/><path class="cls-5" d="M11.7,57.94v-6.8c0-.2.1-.3.2-.3h.4a.27.27,0,0,1,.3.3v3.1h4.3v-3c0-.2.1-.3.2-.3h.4a.27.27,0,0,1,.3.3v6.7a.27.27,0,0,1-.3.3h-.3a.27.27,0,0,1-.3-.3v-3.1H12.6v3a.27.27,0,0,1-.3.3h-.4c-.1.2-.2,0-.2-.2Z"/><path class="cls-5" d="M28.8,54.54a4,4,0,1,1-4.1-3.9h.1a3.89,3.89,0,0,1,4,3.7C28.8,54.44,28.9,54.44,28.8,54.54Zm-.9,0a3,3,0,1,0-3,3A3,3,0,0,0,27.9,54.54ZM23,49.84c-.1-.2,0-.3.2-.4l1.4-.9a.3.3,0,0,1,.4,0l1.4.9c.2.1.3.2.2.4v.1c-.1.2-.2.2-.5,0l-1.2-.7-1.3.7a.45.45,0,0,1-.5,0Z"/><path class="cls-5" d="M37.7,51.14v7a.22.22,0,0,1-.2.2h0c-.1,0-.2-.1-.4-.3l-4.6-5.5v5.4a.27.27,0,0,1-.3.3h-.3a.27.27,0,0,1-.3-.3v-7.1a.22.22,0,0,1,.2-.2h0c.1,0,.2.1.4.3l4.5,5.4V51c0-.2.1-.3.2-.3h.4C37.6,50.74,37.7,50.84,37.7,51.14Z"/><path class="cls-5" d="M40.5,54.54a3.9,3.9,0,0,1,3.9-3.9,3.78,3.78,0,0,1,2.3.8c.1.1.2.3,0,.4h0l-.1.1a.64.64,0,0,1-.6,0,2.62,2.62,0,0,0-1.7-.5,3,3,0,0,0-3,3,3.05,3.05,0,0,0,5,2.3v-1.8h-2a.27.27,0,0,1-.3-.3v-.3a.27.27,0,0,1,.3-.3h2.8a.27.27,0,0,1,.3.3h0v2.6a.86.86,0,0,1-.3.6,4.39,4.39,0,0,1-2.7.9,4,4,0,0,1-3.9-3.9Z"/><path class="cls-5" d="M55.5,57.94v-6.4H53.4a.27.27,0,0,1-.3-.3v-.3a.27.27,0,0,1,.3-.3h5.3c.2,0,.3.1.3.2v.3a.27.27,0,0,1-.3.3H56.5v6.5a.27.27,0,0,1-.3.3h-.3c-.2.1-.4-.1-.4-.3Z"/><path class="cls-5" d="M62.5,57.94v-6.8c0-.2.1-.3.2-.3h.4a.27.27,0,0,1,.3.3v3.1h4.2v-3c0-.2.1-.3.2-.3h.4a.27.27,0,0,1,.3.3v6.7a.27.27,0,0,1-.3.3h-.3a.27.27,0,0,1-.3-.3v-3.1H63.4v3a.27.27,0,0,1-.3.3h-.4c-.1.2-.2,0-.2-.2Z"/><path class="cls-5" d="M78.1,57.74v.2a.27.27,0,0,1-.3.3H73.3a.27.27,0,0,1-.3-.3V51a.27.27,0,0,1,.3-.3h4.5a.27.27,0,0,1,.3.3v.3a.27.27,0,0,1-.3.3H73.9v2.5h3a.27.27,0,0,1,.3.3v.3a.27.27,0,0,1-.3.3H73.8v2.6h3.8a.52.52,0,0,1,.4.2Zm-4.4-7.9c-.1-.2,0-.3.2-.4l1.4-.9a.3.3,0,0,1,.4,0l1.4.9c.2.1.3.2.2.4l-.1.1c-.1.2-.2.2-.5,0l-1.3-.7-1.3.7a.45.45,0,0,1-.5,0Z"/><path class="cls-5" d="M76.6,48.74c-.1,0-.1-.1-.1-.2h0c.2-.4.6-.5.6-.8a.43.43,0,0,0-.4-.4h0a.85.85,0,0,0-.5.3h-.1l-.2-.1v-.2a1.15,1.15,0,0,1,1.1-.6.82.82,0,0,1,.9.8h0c0,.5-.6.6-.9,1.1h-.1Z"/><path class="cls-5" d="M90.7,57.94c.1.2,0,.3-.2.3h-.4c-.2,0-.3-.1-.4-.3L88.1,55H86.2v2.9a.27.27,0,0,1-.3.3h-.4a.27.27,0,0,1-.3-.3V51a.27.27,0,0,1,.3-.3h2.6c1.8,0,2.7.8,2.7,2.2A2,2,0,0,1,89.1,55Zm-4.4-3.6h2.1a1.4,1.4,0,0,0,.2-2.8H86.3Z"/><path class="cls-5" d="M91.9,54.54a4,4,0,1,1,4.1,3.9h-.1a3.89,3.89,0,0,1-4-3.7Zm7,0a3,3,0,1,0-3,3A3,3,0,0,0,98.9,54.54Z"/><path class="cls-5" d="M102.8,57.94v-6.8c0-.2.1-.3.2-.3h.4a.27.27,0,0,1,.3.3v6.8a.27.27,0,0,1-.3.3H103c-.1.1-.2-.1-.2-.3Z"/><path class="cls-5" d="M117.9,58.24h-.2c-.2,0-.3-.1-.4-.3l-.6-5.2L114.5,58q-.15.3-.3.3h0q-.15,0-.3-.3l-2.2-5.3-.6,5.2c0,.2-.1.3-.4.3h-.2c-.2,0-.3-.1-.3-.2v-.1l.9-7c0-.2.1-.2.2-.2h0c.1,0,.2.1.3.2l2.6,5.9,2.6-5.9c.1-.2.2-.2.3-.2h0a.22.22,0,0,1,.2.2l.9,7a.32.32,0,0,1-.3.3Z"/><path class="cls-5" d="M128.5,58.24h-.4c-.2,0-.2-.1-.4-.3l-.6-1.3h-4l-.6,1.3c-.1.2-.1.3-.4.3h-.4c-.2,0-.3-.1-.2-.3l3.3-7c0-.1.1-.2.3-.2h.1c.1,0,.2.1.3.2l3.2,7C128.8,58.14,128.7,58.24,128.5,58.24Zm-5-9.7c0-.2.1-.3.2-.3h.2c.2,0,.3.1.3.2v.1a.9.9,0,1,0,1.8,0c0-.2.1-.3.2-.3h.2c.2,0,.3.1.3.2v.1a1.75,1.75,0,0,1-1.7,1.7,1.66,1.66,0,0,1-1.5-1.7Zm3.2,7.3-1.6-3.7-1.6,3.7Z"/><path class="cls-5" d="M133.1,57.94v-6.4h-2.2a.27.27,0,0,1-.3-.3v-.3a.27.27,0,0,1,.3-.3h5.3c.2,0,.3.1.3.2v.3a.27.27,0,0,1-.3.3H134v6.5a.27.27,0,0,1-.3.3h-.3a.27.27,0,0,1-.3-.3Z"/><path class="cls-5" d="M99.1,51.44l-.2-1.5c0-.2,0-.3.2-.2h.2c.1,0,.2.1.2.3v1.5c0,.2,0,.3-.2.2h-.1C99.1,51.74,99.1,51.64,99.1,51.44Z"/><path class="cls-5" d="M97.2,49.74l-1.7-.9c-.2-.1-.3-.2-.1-.4l.1-.2c.1-.1.3-.2.4-.1H96l1.6,1.1c.2.1.2.2.1.4l-.1.1C97.5,49.84,97.4,49.84,97.2,49.74Z"/><path class="cls-5" d="M125,47.64h0c-.2-.3-.1-.4.1-.5l1.6-1.1a.3.3,0,0,1,.4,0v.1l.1.2c.1.2,0,.3-.1.4l-1.7.9C125.2,47.74,125.1,47.84,125,47.64Z"/></g></svg>