<svg width="342" height="192" viewBox="0 0 342 192" fill="none" xmlns="http://www.w3.org/2000/svg">
<mask id="mask0" mask-type="alpha" maskUnits="userSpaceOnUse" x="0" y="0" width="342" height="192">
<rect width="342" height="192" fill="#C4C4C4"/>
</mask>
<g mask="url(#mask0)">
<g opacity="0.05">
<mask id="mask1" mask-type="alpha" maskUnits="userSpaceOnUse" x="224" y="-4" width="119" height="123">
<rect x="224" y="-4" width="118.75" height="122.699" fill="#C4C4C4"/>
</mask>
<g mask="url(#mask1)">
<path d="M328.257 10.6271L327.895 102.067C327.895 112.577 331.429 105.66 332.97 101.888C338.589 88.0549 341.852 74.2221 341.942 56.437C342.033 38.652 338.861 24.7294 333.332 10.8966C331.792 7.12402 328.257 -2.2176 328.257 10.6271Z" fill="white"/>
<path d="M251.584 93.8034C251.584 108.984 228.745 109.702 228.745 109.702L285.843 109.882C290.013 109.882 296.085 110.061 297.988 109.163C301.342 107.546 301.342 104.942 299.71 103.055L251.766 45.3887C251.766 56.3471 251.675 72.2458 251.584 81.5875C251.584 83.1145 251.584 84.8211 251.584 93.8034Z" fill="white"/>
<path d="M232.551 0.0273438C232.551 0.0273438 245.965 0.117167 255.209 11.3451C257.656 14.3093 297.444 62.1851 297.444 62.1851C299.529 64.7001 303.607 63.263 303.607 60.0293L303.788 9.54862C303.788 5.59639 301.069 2.27293 297.172 1.46452C293.637 0.74593 290.012 0.296814 286.296 0.296814L232.551 0.0273438Z" fill="white"/>
</g>
</g>
<g opacity="0.05">
<mask id="mask2" mask-type="alpha" maskUnits="userSpaceOnUse" x="-75" y="75" width="235" height="216">
<rect x="-75" y="75" width="235" height="215.325" fill="#C4C4C4"/>
</mask>
<g mask="url(#mask2)">
<path d="M56.6472 238.914C7.81845 254.52 -36.3978 210.383 -20.3336 162.148C-14.6078 145.123 -0.770304 131.41 16.4072 125.892C65.236 110.287 109.452 154.424 93.3881 202.659C87.8213 219.841 73.9838 233.397 56.6472 238.914Z" fill="url(#paint0_linear)"/>
<path d="M5.59204 80.8073C-25.9001 90.7381 -51.1893 115.171 -61.6867 146.067C-65.9811 158.835 -67.8897 171.446 -67.8897 183.426C-68.0487 209.908 -58.3466 235.129 -39.4195 254.99C-38.9423 255.463 -38.6242 255.936 -38.1471 256.409C-37.988 256.567 -37.829 256.882 -37.5109 257.04C-37.3518 257.197 -37.1928 257.355 -37.0337 257.355C-9.51785 285.413 33.5851 298.97 78.7556 284.625C84.9586 282.576 91.0026 280.054 96.7285 277.059C119.95 265.394 138.082 244.744 146.193 219.681C150.17 207.701 151.919 195.879 151.919 184.529C153.192 112.491 82.4138 56.3744 5.59204 80.8073ZM70.6441 279.896C58.8743 283.679 46.9454 285.413 35.3346 285.256C9.09117 284.625 -15.5618 274.379 -34.648 255.306C-62.4819 227.563 -71.3888 187.997 -58.5057 149.535C-48.8035 120.531 -25.423 97.6739 3.84247 88.216C15.1351 84.5905 26.5868 82.8565 37.7204 82.6989C64.441 82.8565 89.7302 93.2602 109.134 112.649C136.968 140.392 145.875 179.958 132.992 218.42C123.29 247.424 99.9095 270.438 70.6441 279.896Z" fill="url(#paint1_linear)"/>
</g>
</g>
</g>
<defs>
<linearGradient id="paint0_linear" x1="-23.6475" y1="182.403" x2="96.8614" y2="182.403" gradientUnits="userSpaceOnUse">
<stop offset="0.2083" stop-color="white"/>
<stop offset="1" stop-color="#D0D0D0"/>
</linearGradient>
<linearGradient id="paint1_linear" x1="-67.7833" y1="182.652" x2="151.972" y2="182.652" gradientUnits="userSpaceOnUse">
<stop offset="0.2083" stop-color="white"/>
<stop offset="1" stop-color="#CACACA"/>
</linearGradient>
</defs>
</svg>
